<svg xmlns="http://www.w3.org/2000/svg" xmlns:xlink="http://www.w3.org/1999/xlink" viewBox="0 0 3607.04 2400"><defs><style>.cls-1,.cls-2{fill:#6c6c87;}.cls-1,.cls-2,.cls-3,.cls-5{stroke:#363644;}.cls-1,.cls-3,.cls-5{stroke-linecap:round;stroke-linejoin:round;stroke-width:2px;}.cls-2{stroke-miterlimit:10;stroke-width:3px;}.cls-3,.cls-4{fill:none;}.cls-5{fill:#29293a;}.cls-6{opacity:0.5;}.cls-7{fill:#dbdbad;}</style><symbol id="start1" data-name="start1" viewBox="0 0 400 800"><ellipse class="cls-1" cx="131.56" cy="133.44" rx="6.37" ry="16.36"/><path class="cls-1" d="M301,693.6c-1.44,0-4.55-.1-5.95,0L283.19,565.92l0-.06-1.72-6.55L252.27,430.86v-4.22l-7.13-149.83.08,0C248,260,250,243,240.14,232.11l-20-11.23V203H200v20l-10.43,5.87-14,7.88C169,249,169,260,172.21,278.75l1.59-.89-4.75,153v-1.05l-26,130.2-1.37,5.85a5.82,5.82,0,0,0,0,.59v124c0,3.13-1.78,4.18-2.37,4.18-20,0-39.24,4.17-39.24,15.83s19.21,9.5,39.24,9.5,36.85,3.22,36.85-8.44a13.62,13.62,0,0,0-2.58-7.82,13.3,13.3,0,0,0,1.39-5.9l5.84-129.59v-.06l.1-2v-.2l29.72-103.4L244,565.92V566l.7,5.09,18.31,133a13,13,0,0,0,.55,3.75,12.4,12.4,0,0,0-.55,3.64c0,11.66,15.65,7.38,35.67,7.38s36.86,4.28,36.86-7.38S321,693.6,301,693.6Z"/><path class="cls-1" d="M176,237l-55.82,64-8.88,11.41,0,.12-.61,4.69L100,413.38c-7.93,4.18-10.89,15.31-6.59,25.58,4.52,10.75,15.28,16.47,24.07,12.79s12.24-15.38,7.73-26.13a25.08,25.08,0,0,0-1.33-2.7,11.43,11.43,0,0,0-.84-5.54,10,10,0,0,0-.72-1.42l20.85-88.6a21.72,21.72,0,0,0,2.48-2.79v0L176,282"/><path class="cls-1" d="M237.22,230.24l60.56-33.72-18-74.55a23.79,23.79,0,0,1-4.25-13.86c0-11.66,7.72-21.11,17.24-21.11S310,96.45,310,108.11a25.28,25.28,0,0,1-1,7,11.41,11.41,0,0,1,1,4.61,11.87,11.87,0,0,1-3.77,8.59l21.24,84.35L319.19,226a.76.76,0,0,1-.2.13l-1.25.71S248.74,273,246,274"/><ellipse class="cls-1" cx="286.63" cy="132.39" rx="6.37" ry="16.36"/><path class="cls-1" d="M216.05,209.48a76.28,76.28,0,1,0-18-.13V210h18Z"/><path class="cls-2" d="M203.1,132.41c-29.88,13.76-13.48,24.79-1.16,27.6"/><rect class="cls-4" width="400" height="800"/></symbol><symbol id="start2" data-name="start2" viewBox="0 0 400 800"><ellipse class="cls-1" cx="131.56" cy="134.44" rx="6.37" ry="16.36"/><path class="cls-1" d="M301,694.6c-1.44,0-4.55-.1-5.95,0L283.19,566.92l0-.06-1.72-6.55L252.27,431.86v-4.22l-7.13-149.83.08,0C248,261,250,244,240.14,233.11l-20-11.23V204H200v20l-10.43,5.87-14,7.88C169,250,169,261,172.21,279.75l1.59-.89-4.75,153v-1.05l-26,130.2-1.37,5.85a5.82,5.82,0,0,0,0,.59v124c0,3.13-1.78,4.18-2.37,4.18-20,0-39.24,4.17-39.24,15.83s19.21,9.5,39.24,9.5,36.85,3.22,36.85-8.44a13.62,13.62,0,0,0-2.58-7.82,13.3,13.3,0,0,0,1.39-5.9l5.84-129.59v-.06l.1-2v-.2l29.72-103.4L244,566.92V567l.7,5.09,18.31,133a13,13,0,0,0,.55,3.75,12.4,12.4,0,0,0-.55,3.64c0,11.66,15.65,7.38,35.67,7.38s36.86,4.28,36.86-7.38S321,694.6,301,694.6Z"/><path class="cls-1" d="M176,238l-55.82,64-8.88,11.41,0,.12-.61,4.69L100,414.38c-7.93,4.18-10.89,15.31-6.59,25.58,4.52,10.75,15.28,16.47,24.07,12.79s12.24-15.38,7.73-26.13a25.08,25.08,0,0,0-1.33-2.7,11.43,11.43,0,0,0-.84-5.54,10,10,0,0,0-.72-1.42l20.85-88.6a21.72,21.72,0,0,0,2.48-2.79v0L176,283"/><path class="cls-1" d="M240.89,236.34l45.78-33.24-37.18-80.6c2.62-2.23,1-7.09,1-12.39,0-11.66,8-21.11,17.48-21.11s17,9.45,17,21.11a25.28,25.28,0,0,1-1,7,11.41,11.41,0,0,1,1,4.61c0,3.33-1.43,6.34.12,6.38L319,204l.19,23a.76.76,0,0,1-.2.13l-1.25.71S248.74,274,246,275"/><ellipse class="cls-1" cx="286.63" cy="133.39" rx="6.37" ry="16.36"/><path class="cls-1" d="M216.05,210.48a76.28,76.28,0,1,0-18-.13V211h18Z"/><path class="cls-2" d="M203.1,133.41c-29.88,13.76-13.48,24.79-1.16,27.6"/><rect class="cls-4" width="400" height="800"/></symbol><symbol id="start3" data-name="start3" viewBox="0 0 400 800"><ellipse class="cls-1" cx="135.56" cy="133.44" rx="6.37" ry="16.36"/><path class="cls-1" d="M305,693.6c-1.44,0-4.55-.1-5.95,0L287.19,565.92l0-.06-1.72-6.55L256.27,430.86v-4.22l-7.13-149.83.08,0C252,260,254,243,244.14,232.11l-20-11.23V203H204v20l-10.43,5.87-14,7.88C173,249,173,260,176.21,278.75l1.59-.89-4.75,153v-1.05l-26,130.2-1.37,5.85a5.82,5.82,0,0,0,0,.59v124c0,3.13-1.78,4.18-2.37,4.18-20,0-39.24,4.17-39.24,15.83s19.21,9.5,39.24,9.5,36.85,3.22,36.85-8.44a13.62,13.62,0,0,0-2.58-7.82,13.3,13.3,0,0,0,1.39-5.9l5.84-129.59v-.06l.1-2v-.2l29.72-103.4L248,565.92V566l.7,5.09,18.31,133a13,13,0,0,0,.55,3.75,12.4,12.4,0,0,0-.55,3.64c0,11.66,15.65,7.38,35.67,7.38s36.86,4.28,36.86-7.38S325,693.6,305,693.6Z"/><path class="cls-1" d="M180,237l-55.82,64-8.88,11.41,0,.12-.61,4.69L104,413.38c-7.93,4.18-10.89,15.31-6.59,25.58,4.52,10.75,15.28,16.47,24.07,12.79s12.24-15.38,7.73-26.13a25.08,25.08,0,0,0-1.33-2.7,11.43,11.43,0,0,0-.84-5.54,10,10,0,0,0-.72-1.42l20.85-88.6a21.72,21.72,0,0,0,2.48-2.79v0L180,282"/><path class="cls-1" d="M244.89,235.34l45.78-33.24-56.18-75.6c2.62-2.23,1-7.09,1-12.39,0-11.66,8-21.11,17.48-21.11s17,9.45,17,21.11a25.28,25.28,0,0,1-1,7,11.41,11.41,0,0,1,1,4.61c0,3.33-1.43,6.34.12,6.38L323,203l.19,23a.76.76,0,0,1-.2.13l-1.25.71S252.74,273,250,274"/><ellipse class="cls-1" cx="290.63" cy="132.39" rx="6.37" ry="16.36"/><path class="cls-1" d="M220.05,209.48a76.28,76.28,0,1,0-18-.13V210h18Z"/><path class="cls-2" d="M207.1,132.41c-29.88,13.76-13.48,24.79-1.16,27.6"/><rect class="cls-4" width="400" height="800"/></symbol><symbol id="start4" data-name="start4" viewBox="0 0 400 800"><path class="cls-1" d="M299,693.6c-1.44,0-4.55-.1-5.95,0L281.19,565.92l0-.06-1.72-6.55L250.27,430.86v-4.22l-7.13-149.83.08,0C246,260,248,243,238.14,232.11l-20-11.23V203H198v20l-10.43,5.87-14,7.88C167,249,167,260,170.21,278.75l1.59-.89-4.75,153v-1.05l-26,130.2-1.37,5.85a5.82,5.82,0,0,0,0,.59v124c0,3.13-1.78,4.18-2.37,4.18-20,0-39.24,4.17-39.24,15.83s19.21,9.5,39.24,9.5,36.85,3.22,36.85-8.44a13.62,13.62,0,0,0-2.58-7.82,13.3,13.3,0,0,0,1.39-5.9l5.84-129.59v-.06l.1-2v-.2l29.72-103.4L242,565.92V566l.7,5.09,18.31,133a13,13,0,0,0,.55,3.75,12.4,12.4,0,0,0-.55,3.64c0,11.66,15.65,7.38,35.67,7.38s36.86,4.28,36.86-7.38S319,693.6,299,693.6Z"/><path class="cls-1" d="M174,237l-55.82,64-8.88,11.41,0,.12-.61,4.69L98,413.38c-7.93,4.18-10.89,15.31-6.59,25.58,4.52,10.75,15.28,16.47,24.07,12.79s12.24-15.38,7.73-26.13a25.08,25.08,0,0,0-1.33-2.7,11.43,11.43,0,0,0-.84-5.54,10,10,0,0,0-.72-1.42l20.85-88.6a21.72,21.72,0,0,0,2.48-2.79v0L174,282"/><path class="cls-1" d="M238.89,235.34l45.78-33.24-56.18-75.6c2.62-2.23,1-7.09,1-12.39,0-11.66,8-21.11,17.48-21.11s17,9.45,17,21.11a25.28,25.28,0,0,1-1,7,11.41,11.41,0,0,1,1,4.61c0,3.33-1.43,6.34.12,6.38L317,203l.19,23a.76.76,0,0,1-.2.13l-1.25.71S246.74,273,244,274"/><path class="cls-1" d="M214.05,209.48a76.28,76.28,0,1,0-18-.13V210h18Z"/><path class="cls-2" d="M275.1,135.41c27.34,12.61,12.8,24.26-1.16,27.6"/><path class="cls-3" d="M188.09,119.09c-4.92,0-8.91,8.93-8.91,19.95s4,20,8.91,20"/><rect class="cls-4" width="400" height="800"/></symbol><symbol id="start5" data-name="start5" viewBox="0 0 400 800"><path class="cls-1" d="M237.89,231.34l45.78-33.24-56.18-75.6c2.62-2.23,1-7.09,1-12.39,0-11.66,8-21.11,17.48-21.11s17,9.45,17,21.11a25.28,25.28,0,0,1-1,7,11.41,11.41,0,0,1,1,4.61c0,3.33-1.43,6.34.12,6.38L316,199l.19,23a.76.76,0,0,1-.2.13l-1.25.71S245.74,269,243,270"/><path class="cls-1" d="M167.05,429.81v.05h0Z"/><path class="cls-1" d="M250.48,431.78l-.21-.92v-4.22l-7.13-149.83.08,0C244,260,242,247,238.14,232.11l-20-11.23V203H198v20l-10.43,5.87-14,7.88C167,249,167,260,170.21,278.75l1.59-.89-4.72,152.05C164,448,162,445,161,463l2,8,46.13-7C229.35,463.32,238.57,445.38,250.48,431.78Z"/><path class="cls-1" d="M209,463.47l.16.5.48,0Z"/><path class="cls-1" d="M207.61,462l-.48,0L240,563.92V564l.7,5.09,18.31,133a13,13,0,0,0,.55,3.75,12.4,12.4,0,0,0-.55,3.64c0,11.66,15.65,7.38,35.67,7.38s36.86,4.28,36.86-7.38S317,691.6,297,691.6c-1.44,0-4.55-.1-5.95,0L279.19,563.92l0-.06-1.72-6.55L250,431"/><path class="cls-1" d="M219,439l4.32,125.73,1.05,5.91c0,.21,0,.39,0,.6l-7,123.81c-.18,3.13,1.54,4.28,2.14,4.32,20,1.13,38.93,6.38,38.27,18S238,725.79,218,724.65s-37,1.13-36.32-10.52a13.71,13.71,0,0,1,3-7.66,13.19,13.19,0,0,1-1.05-6l1.51-129.71v-.06l0-2v-.2L161.73,465.06l.24,0-.24,0-.2-.9"/><path class="cls-1" d="M174,237l-33.62,71.47L135.21,322v.12l.78,4.66,17.84,95.07c-6.36,6.31-6,17.82,1.15,26.39,7.45,9,19.42,11.31,26.75,5.22s7.23-18.27-.22-27.25a25.37,25.37,0,0,0-2.06-2.2,11.43,11.43,0,0,0-2.41-5.05,10,10,0,0,0-1.11-1.14L170.06,327a20.25,20.25,0,0,0,1.55-3.39h0L188.24,274"/><path class="cls-1" d="M214.05,209.48a76.28,76.28,0,1,0-18-.13V210h18Z"/><path class="cls-2" d="M275.1,135.41c27.34,12.61,12.8,24.26-1.16,27.6"/><path class="cls-3" d="M188.09,119.09c-4.92,0-8.91,8.93-8.91,19.95s4,20,8.91,20"/><rect class="cls-4" width="400" height="800"/></symbol><symbol id="start6" data-name="start6" viewBox="0 0 400 800"><path class="cls-1" d="M235.21,232.64l45.43,33.71,55.29-76.24c2.92,1.83,7.07-1.14,12.13-2.73,11.13-3.5,22.52,1.26,25.38,10.35s-3.92,19.05-15,22.54a25.76,25.76,0,0,1-7,1.17,11.55,11.55,0,0,1-4.11,2.31c-3.17,1-6.48.54-6,2l-51.81,71.7-21.93,7.09a.93.93,0,0,1-.18-.16l-1.05-1s-64.68-52-66.45-54.31"/><path class="cls-1" d="M164.05,429.81v.05h0Z"/><path class="cls-1" d="M247.48,431.78l-.21-.92v-4.22l-7.13-149.83.08,0C241,260,239,247,235.14,232.11l-20-11.23V203H195v20l-10.43,5.87-14,7.88C164,249,164,260,167.21,278.75l1.59-.89-4.72,152.05C161,448,159,445,158,463l2,8,46.13-7C226.35,463.32,235.57,445.38,247.48,431.78Z"/><path class="cls-1" d="M206,463.47l.16.5.48,0Z"/><path class="cls-1" d="M203,459.15h-.48l27.95,103.4v.09l.46,5.12,12,133.77a13,13,0,0,0,.37,3.76,12.38,12.38,0,0,0-.72,3.61C242,720.54,257.85,717,277.85,718s36.61,6,37.16-5.63-13.59-18.61-33.59-19.56c-1.43-.07-4.54-.31-5.94-.28l-5.81-128.1v-.06l-1.41-6.63L246.83,430.24"/><path class="cls-1" d="M215,439l1.27,125.8.91,5.94c0,.2,0,.39,0,.59l-10,123.6c-.25,3.13,1.44,4.32,2,4.37,20,1.62,38.77,7.33,37.83,19s-19.92,7.91-39.87,6.29-37,.23-36.06-11.39a13.72,13.72,0,0,1,3.21-7.59,13.14,13.14,0,0,1-.91-6L178,569.94v-.06l.07-2v-.2l-21-104,.23,0-.23,0-.19-.9"/><path class="cls-1" d="M171,237l-33.62,71.47L132.21,322v.12l.78,4.66,17.84,95.07c-6.36,6.31-6,17.82,1.15,26.39,7.45,9,19.42,11.31,26.75,5.22s7.23-18.27-.22-27.25a25.37,25.37,0,0,0-2.06-2.2,11.43,11.43,0,0,0-2.41-5.05,10,10,0,0,0-1.11-1.14L167.06,327a20.25,20.25,0,0,0,1.55-3.39h0L185.24,274"/><path class="cls-1" d="M211.05,209.48a76.28,76.28,0,1,0-18-.13V210h18Z"/><path class="cls-2" d="M272.1,135.41c27.34,12.61,12.8,24.26-1.16,27.6"/><path class="cls-3" d="M185.09,119.09c-4.92,0-8.91,8.93-8.91,19.95s4,20,8.91,20"/><rect class="cls-4" width="400" height="800"/></symbol><symbol id="start7" data-name="start7" viewBox="0 0 400 800"><path class="cls-1" d="M239.9,259l-13.14,55,91.84,20.87c-.54,3.4,3.83,6.05,7.28,10.08,7.59,8.85,7.69,21.2.46,27.4s-19,3.88-26.64-5a25.3,25.3,0,0,1-3.81-5.95,11.26,11.26,0,0,1-3.74-2.87c-2.16-2.52-3-5.74-4.24-4.76l-86.29-19.45L186.48,317a1.25,1.25,0,0,1,.07-.23l.49-1.35s22.4-79.91,23.83-82.45"/><path class="cls-1" d="M167.05,429.81v.05h0Z"/><path class="cls-1" d="M250.48,431.78l-.21-.92v-4.22l-7.13-149.83.08,0C244,260,242,247,238.14,232.11l-20-11.23V203H198v20l-10.43,5.87-14,7.88C167,249,167,260,170.21,278.75l1.59-.89-4.72,152.05C164,448,162,445,161,463l2,8,46.13-7C229.35,463.32,238.57,445.38,250.48,431.78Z"/><path class="cls-1" d="M209,463.47l.16.5.48,0Z"/><path class="cls-1" d="M206,459.15h-.48l27.95,103.4v.09l.46,5.12,12,133.77a13,13,0,0,0,.37,3.76,12.38,12.38,0,0,0-.72,3.61C245,720.54,260.85,717,280.85,718s36.61,6,37.16-5.63-13.59-18.61-33.59-19.56c-1.43-.07-4.54-.31-5.94-.28l-5.81-128.1v-.06l-1.41-6.63L249.83,430.24"/><path class="cls-1" d="M218,439l1.27,125.8.91,5.94c0,.2,0,.39,0,.59l-10,123.6c-.25,3.13,1.44,4.32,2,4.37,20,1.62,38.77,7.33,37.83,19s-19.92,7.91-39.87,6.29-37,.23-36.06-11.39a13.72,13.72,0,0,1,3.21-7.59,13.14,13.14,0,0,1-.91-6L181,569.94v-.06l.07-2v-.2l-21-104,.23,0-.23,0-.19-.9"/><path class="cls-1" d="M174,237l-33.62,71.47L135.21,322v.12l.78,4.66,17.84,95.07c-6.36,6.31-6,17.82,1.15,26.39,7.45,9,19.42,11.31,26.75,5.22s7.23-18.27-.22-27.25a25.37,25.37,0,0,0-2.06-2.2,11.43,11.43,0,0,0-2.41-5.05,10,10,0,0,0-1.11-1.14L170.06,327a20.25,20.25,0,0,0,1.55-3.39h0L188.24,274"/><path class="cls-1" d="M214.05,209.48a76.28,76.28,0,1,0-18-.13V210h18Z"/><path class="cls-2" d="M275.1,135.41c27.34,12.61,12.8,24.26-1.16,27.6"/><path class="cls-3" d="M188.09,119.09c-4.92,0-8.91,8.93-8.91,19.95s4,20,8.91,20"/><rect class="cls-4" width="400" height="800"/></symbol><symbol id="billede1" data-name="billede1" viewBox="0 0 400 800"><path class="cls-1" d="M167.05,429.81v.05h0Z"/><path class="cls-1" d="M250.48,431.78l-.21-.92v-4.22l-7.13-149.83.08,0C244,260,242,247,238.14,232.11l-20-11.23V203H198v20l-10.43,5.87-14,7.88C167,249,167,260,170.21,278.75l1.59-.89-4.72,152.05C164,448,162,445,161,463l2,8,46.13-7C229.35,463.32,238.57,445.38,250.48,431.78Z"/><path class="cls-1" d="M209,463.47l.16.5.48,0Z"/><path class="cls-1" d="M206,459.15h-.48l27.95,103.4v.09l.46,5.12,12,133.77a13,13,0,0,0,.37,3.76,12.38,12.38,0,0,0-.72,3.61C245,720.54,260.85,717,280.85,718s36.61,6,37.16-5.63-13.59-18.61-33.59-19.56c-1.43-.07-4.54-.31-5.94-.28l-5.81-128.1v-.06l-1.41-6.63L249.83,430.24"/><path class="cls-1" d="M218,439l1.27,125.8.91,5.94c0,.2,0,.39,0,.59l-10,123.6c-.25,3.13,1.44,4.32,2,4.37,20,1.62,38.77,7.33,37.83,19s-19.92,7.91-39.87,6.29-37,.23-36.06-11.39a13.72,13.72,0,0,1,3.21-7.59,13.14,13.14,0,0,1-.91-6L181,569.94v-.06l.07-2v-.2l-21-104,.23,0-.23,0-.19-.9"/><path class="cls-1" d="M174,237l-33.62,71.47L135.21,322v.12l.78,4.66,17.84,95.07c-6.36,6.31-6,17.82,1.15,26.39,7.45,9,19.42,11.31,26.75,5.22s7.23-18.27-.22-27.25a25.37,25.37,0,0,0-2.06-2.2,11.43,11.43,0,0,0-2.41-5.05,10,10,0,0,0-1.11-1.14L170.06,327a20.25,20.25,0,0,0,1.55-3.39h0L188.24,274"/><path class="cls-1" d="M214.05,209.48a76.28,76.28,0,1,0-18-.13V210h18Z"/><path class="cls-2" d="M275.1,135.41c27.34,12.61,12.8,24.26-1.16,27.6"/><path class="cls-3" d="M188.09,119.09c-4.92,0-8.91,8.93-8.91,19.95s4,20,8.91,20"/><rect class="cls-4" width="400" height="800"/></symbol><symbol id="billede2" data-name="billede2" viewBox="0 0 400 800"><path class="cls-1" d="M229.37,266.88l-21.81,52.95L296.19,354c-1.07,3.31,2.88,6.58,5.7,11.11,6.2,9.93,4.36,22.26-3.85,27.38s-19.68,1.1-25.88-8.83a25.28,25.28,0,0,1-2.88-6.48,11.28,11.28,0,0,1-3.29-3.41c-1.77-2.83-2.14-6.17-3.49-5.37l-83.31-32-12.41-19.53a1.51,1.51,0,0,1,.11-.22l.7-1.27s35-76.42,36.81-78.75"/><path class="cls-1" d="M167.05,429.81v.05h0Z"/><path class="cls-1" d="M250.48,431.78l-.21-.92v-4.22l-7.13-149.83.08,0C244,260,242,247,238.14,232.11l-20-11.23V203H198v20l-10.43,5.87-14,7.88C167,249,167,260,170.21,278.75l1.59-.89-4.72,152.05C164,448,162,445,161,463l2,8,46.13-7C229.35,463.32,238.57,445.38,250.48,431.78Z"/><path class="cls-1" d="M209,463.47l.16.5.48,0Z"/><path class="cls-1" d="M206,459.15h-.48l27.95,103.4v.09l.46,5.12,12,133.77a13,13,0,0,0,.37,3.76,12.38,12.38,0,0,0-.72,3.61C245,720.54,260.85,717,280.85,718s36.61,6,37.16-5.63-13.59-18.61-33.59-19.56c-1.43-.07-4.54-.31-5.94-.28l-5.81-128.1v-.06l-1.41-6.63L249.83,430.24"/><path class="cls-1" d="M218,439l1.27,125.8.91,5.94c0,.2,0,.39,0,.59l-10,123.6c-.25,3.13,1.44,4.32,2,4.37,20,1.62,38.77,7.33,37.83,19s-19.92,7.91-39.87,6.29-37,.23-36.06-11.39a13.72,13.72,0,0,1,3.21-7.59,13.14,13.14,0,0,1-.91-6L181,569.94v-.06l.07-2v-.2l-21-104,.23,0-.23,0-.19-.9"/><path class="cls-1" d="M174,237l-33.62,71.47L135.21,322v.12l.78,4.66,17.84,95.07c-6.36,6.31-6,17.82,1.15,26.39,7.45,9,19.42,11.31,26.75,5.22s7.23-18.27-.22-27.25a25.37,25.37,0,0,0-2.06-2.2,11.43,11.43,0,0,0-2.41-5.05,10,10,0,0,0-1.11-1.14L170.06,327a20.25,20.25,0,0,0,1.55-3.39h0L188.24,274"/><path class="cls-1" d="M203.9,209.35a76.28,76.28,0,1,0-17.83-2.54l-.09.64,17.85,2.42Z"/><path class="cls-2" d="M274.32,144.13c25.41,16.16,9.44,25.76-4.84,27.2"/><path class="cls-3" d="M190.29,116.3c-4.88-.66-10,7.66-11.51,18.58s1.28,20.31,6.16,21"/><rect class="cls-4" width="400" height="800"/><path class="cls-5" d="M277.56,426.17,255.4,409a12,12,0,0,1-2.15-16.83L293.61,340a12,12,0,0,1,16.83-2.16L332.6,355a12,12,0,0,1,2.15,16.83L294.39,424A12,12,0,0,1,277.56,426.17Z"/></symbol><symbol id="billede3" data-name="billede3" viewBox="0 0 400 800"><path class="cls-1" d="M239.7,261.21l-2.88,57.19,95,2.64c.09,3.48,4.91,5.25,9.08,8.57,9.16,7.29,11.54,19.53,5.51,27.1s-18.19,7.61-27.35.31a25.18,25.18,0,0,1-4.88-5.15,11.23,11.23,0,0,1-4.23-2.11c-2.62-2.08-4.08-5.1-5.09-3.89l-89.19-2.32-18.22-14.27a1.75,1.75,0,0,1,0-.24l.24-1.43s7.47-83.72,8.42-86.52"/><path class="cls-1" d="M167.05,429.81v.05h0Z"/><path class="cls-1" d="M250.48,431.78l-.21-.92v-4.22l-7.13-149.83.08,0C244,260,242,247,238.14,232.11l-20-11.23V203H198v20l-10.43,5.87-14,7.88C167,249,167,260,170.21,278.75l1.59-.89-4.72,152.05C164,448,162,445,161,463l2,8,46.13-7C229.35,463.32,238.57,445.38,250.48,431.78Z"/><path class="cls-1" d="M209,463.47l.16.5.48,0Z"/><path class="cls-1" d="M206,459.15h-.48l27.95,103.4v.09l.46,5.12,12,133.77a13,13,0,0,0,.37,3.76,12.38,12.38,0,0,0-.72,3.61C245,720.54,260.85,717,280.85,718s36.61,6,37.16-5.63-13.59-18.61-33.59-19.56c-1.43-.07-4.54-.31-5.94-.28l-5.81-128.1v-.06l-1.41-6.63L249.83,430.24"/><path class="cls-1" d="M218,439l1.27,125.8.91,5.94c0,.2,0,.39,0,.59l-10,123.6c-.25,3.13,1.44,4.32,2,4.37,20,1.62,38.77,7.33,37.83,19s-19.92,7.91-39.87,6.29-37,.23-36.06-11.39a13.72,13.72,0,0,1,3.21-7.59,13.14,13.14,0,0,1-.91-6L181,569.94v-.06l.07-2v-.2l-21-104,.23,0-.23,0-.19-.9"/><path class="cls-1" d="M174,237l-33.62,71.47L135.21,322v.12l.78,4.66,17.84,95.07c-6.36,6.31-6,17.82,1.15,26.39,7.45,9,19.42,11.31,26.75,5.22s7.23-18.27-.22-27.25a25.37,25.37,0,0,0-2.06-2.2,11.43,11.43,0,0,0-2.41-5.05,10,10,0,0,0-1.11-1.14L170.06,327a20.25,20.25,0,0,0,1.55-3.39h0L188.24,274"/><path class="cls-1" d="M203.9,209.35a76.28,76.28,0,1,0-17.83-2.54l-.09.64,17.85,2.42Z"/><path class="cls-2" d="M274.32,144.13c25.41,16.16,9.44,25.76-4.84,27.2"/><path class="cls-3" d="M190.29,116.3c-4.88-.66-10,7.66-11.51,18.58s1.28,20.31,6.16,21"/><rect class="cls-4" width="400" height="800"/><path class="cls-5" d="M341.3,387.28l-26.6-8.75a12,12,0,0,1-7.65-15.14l20.61-62.7A12,12,0,0,1,342.81,293l26.6,8.74a12,12,0,0,1,7.65,15.15l-20.61,62.7A12,12,0,0,1,341.3,387.28Z"/></symbol><symbol id="billede4" data-name="billede4" viewBox="0 0 400 800"><path class="cls-1" d="M213.29,249.49l32.11,47.42,77.43-55c2.16,2.72,7.08,1.23,12.41,1.38,11.7.31,21,8.65,20.7,18.33s-9.95,17-21.65,16.7a24.91,24.91,0,0,1-7-1.18,11.2,11.2,0,0,1-4.65.87c-3.34-.09-6.33-1.62-6.4-.05L243.6,329.74l-23.13-.43a1.57,1.57,0,0,1-.12-.21l-.68-1.29s-44.4-71.36-45.33-74.17"/><path class="cls-1" d="M167.05,429.81v.05h0Z"/><path class="cls-1" d="M250.48,431.78l-.21-.92v-4.22l-7.13-149.83.08,0C244,260,242,247,238.14,232.11l-20-11.23V203H198v20l-10.43,5.87-14,7.88C167,249,167,260,170.21,278.75l1.59-.89-4.72,152.05C164,448,162,445,161,463l2,8,46.13-7C229.35,463.32,238.57,445.38,250.48,431.78Z"/><path class="cls-1" d="M209,463.47l.16.5.48,0Z"/><path class="cls-1" d="M206,459.15h-.48l27.95,103.4v.09l.46,5.12,12,133.77a13,13,0,0,0,.37,3.76,12.38,12.38,0,0,0-.72,3.61C245,720.54,260.85,717,280.85,718s36.61,6,37.16-5.63-13.59-18.61-33.59-19.56c-1.43-.07-4.54-.31-5.94-.28l-5.81-128.1v-.06l-1.41-6.63L249.83,430.24"/><path class="cls-1" d="M218,439l1.27,125.8.91,5.94c0,.2,0,.39,0,.59l-10,123.6c-.25,3.13,1.44,4.32,2,4.37,20,1.62,38.77,7.33,37.83,19s-19.92,7.91-39.87,6.29-37,.23-36.06-11.39a13.72,13.72,0,0,1,3.21-7.59,13.14,13.14,0,0,1-.91-6L181,569.94v-.06l.07-2v-.2l-21-104,.23,0-.23,0-.19-.9"/><path class="cls-1" d="M174,237l-33.62,71.47L135.21,322v.12l.78,4.66,17.84,95.07c-6.36,6.31-6,17.82,1.15,26.39,7.45,9,19.42,11.31,26.75,5.22s7.23-18.27-.22-27.25a25.37,25.37,0,0,0-2.06-2.2,11.43,11.43,0,0,0-2.41-5.05,10,10,0,0,0-1.11-1.14L170.06,327a20.25,20.25,0,0,0,1.55-3.39h0L188.24,274"/><path class="cls-1" d="M203.9,209.35a76.28,76.28,0,1,0-17.83-2.54l-.09.64,17.85,2.42Z"/><path class="cls-2" d="M274.32,144.13c25.41,16.16,9.44,25.76-4.84,27.2"/><path class="cls-3" d="M190.29,116.3c-4.88-.66-10,7.66-11.51,18.58s1.28,20.31,6.16,21"/><rect class="cls-4" width="400" height="800"/><path class="cls-5" d="M370.29,289.06l-26.51,9a12,12,0,0,1-15.23-7.5L307.3,228.1a12,12,0,0,1,7.49-15.23l26.51-9a12,12,0,0,1,15.22,7.5l21.26,62.48A12,12,0,0,1,370.29,289.06Z"/></symbol><symbol id="billede5" data-name="billede5" viewBox="0 0 400 800"><path class="cls-1" d="M225.68,240.62l48.15,31,49.61-81c3.06,1.66,7-1.64,12-3.6,10.89-4.3,22.68-.27,26.24,8.73s-2.47,19.56-13.36,23.86a25.26,25.26,0,0,1-6.9,1.67,11.24,11.24,0,0,1-3.94,2.62c-3.1,1.23-6.46,1-5.91,2.46l-46.47,76.17-21.45,8.68-.19-.14-1.13-.92s-68.85-48.21-70.8-50.43"/><path class="cls-1" d="M167.05,429.81v.05h0Z"/><path class="cls-1" d="M250.48,431.78l-.21-.92v-4.22l-7.13-149.83.08,0C244,260,242,247,238.14,232.11l-20-11.23V203H198v20l-10.43,5.87-14,7.88C167,249,167,260,170.21,278.75l1.59-.89-4.72,152.05C164,448,162,445,161,463l2,8,46.13-7C229.35,463.32,238.57,445.38,250.48,431.78Z"/><path class="cls-1" d="M209,463.47l.16.5.48,0Z"/><path class="cls-1" d="M206,459.15h-.48l27.95,103.4v.09l.46,5.12,12,133.77a13,13,0,0,0,.37,3.76,12.38,12.38,0,0,0-.72,3.61C245,720.54,260.85,717,280.85,718s36.61,6,37.16-5.63-13.59-18.61-33.59-19.56c-1.43-.07-4.54-.31-5.94-.28l-5.81-128.1v-.06l-1.41-6.63L249.83,430.24"/><path class="cls-1" d="M218,439l1.27,125.8.91,5.94c0,.2,0,.39,0,.59l-10,123.6c-.25,3.13,1.44,4.32,2,4.37,20,1.62,38.77,7.33,37.83,19s-19.92,7.91-39.87,6.29-37,.23-36.06-11.39a13.72,13.72,0,0,1,3.21-7.59,13.14,13.14,0,0,1-.91-6L181,569.94v-.06l.07-2v-.2l-21-104,.23,0-.23,0-.19-.9"/><path class="cls-1" d="M174,237l-33.62,71.47L135.21,322v.12l.78,4.66,17.84,95.07c-6.36,6.31-6,17.82,1.15,26.39,7.45,9,19.42,11.31,26.75,5.22s7.23-18.27-.22-27.25a25.37,25.37,0,0,0-2.06-2.2,11.43,11.43,0,0,0-2.41-5.05,10,10,0,0,0-1.11-1.14L170.06,327a20.25,20.25,0,0,0,1.55-3.39h0L188.24,274"/><path class="cls-1" d="M203.9,209.35a76.28,76.28,0,1,0-17.83-2.54l-.09.64,17.85,2.42Z"/><path class="cls-2" d="M274.32,144.13c25.41,16.16,9.44,25.76-4.84,27.2"/><path class="cls-3" d="M190.29,116.3c-4.88-.66-10,7.66-11.51,18.58s1.28,20.31,6.16,21"/><rect class="cls-4" width="400" height="800"/><rect class="cls-5" x="319.14" y="146.24" width="25.86" height="90" rx="12" ry="12"/></symbol><symbol id="billede6" data-name="billede6" viewBox="0 0 407.2 800"><path class="cls-1" d="M225.68,240.62l48.15,31,49.61-81c3.06,1.66,7-1.64,12-3.6,10.89-4.3,22.68-.27,26.24,8.73s-2.47,19.56-13.36,23.86a25.26,25.26,0,0,1-6.9,1.67,11.24,11.24,0,0,1-3.94,2.62c-3.1,1.23-6.46,1-5.91,2.46l-46.47,76.17-21.45,8.68-.19-.14-1.13-.92s-68.85-48.21-70.8-50.43"/><path class="cls-1" d="M167.05,429.81v.05h0Z"/><path class="cls-1" d="M250.48,431.78l-.21-.92v-4.22l-7.13-149.83.08,0C244,260,242,247,238.14,232.11l-20-11.23V203H198v20l-10.43,5.87-14,7.88C167,249,167,260,170.21,278.75l1.59-.89-4.72,152.05C164,448,162,445,161,463l2,8,46.13-7C229.35,463.32,238.57,445.38,250.48,431.78Z"/><path class="cls-1" d="M209,463.47l.16.5.48,0Z"/><path class="cls-1" d="M206,459.15h-.48l27.95,103.4v.09l.46,5.12,12,133.77a13,13,0,0,0,.37,3.76,12.38,12.38,0,0,0-.72,3.61C245,720.54,260.85,717,280.85,718s36.61,6,37.16-5.63-13.59-18.61-33.59-19.56c-1.43-.07-4.54-.31-5.94-.28l-5.81-128.1v-.06l-1.41-6.63L249.83,430.24"/><path class="cls-1" d="M218,439l1.27,125.8.91,5.94c0,.2,0,.39,0,.59l-10,123.6c-.25,3.13,1.44,4.32,2,4.37,20,1.62,38.77,7.33,37.83,19s-19.92,7.91-39.87,6.29-37,.23-36.06-11.39a13.72,13.72,0,0,1,3.21-7.59,13.14,13.14,0,0,1-.91-6L181,569.94v-.06l.07-2v-.2l-21-104,.23,0-.23,0-.19-.9"/><path class="cls-1" d="M174,237l-33.62,71.47L135.21,322v.12l.78,4.66,17.84,95.07c-6.36,6.31-6,17.82,1.15,26.39,7.45,9,19.42,11.31,26.75,5.22s7.23-18.27-.22-27.25a25.37,25.37,0,0,0-2.06-2.2,11.43,11.43,0,0,0-2.41-5.05,10,10,0,0,0-1.11-1.14L170.06,327a20.25,20.25,0,0,0,1.55-3.39h0L188.24,274"/><path class="cls-1" d="M203.9,209.35a76.28,76.28,0,1,0-17.83-2.54l-.09.64,17.85,2.42Z"/><path class="cls-2" d="M274.32,144.13c25.41,16.16,9.44,25.76-4.84,27.2"/><path class="cls-3" d="M190.29,116.3c-4.88-.66-10,7.66-11.51,18.58s1.28,20.31,6.16,21"/><rect class="cls-4" width="400" height="800"/><rect class="cls-5" x="319.14" y="146.24" width="25.86" height="90" rx="12" ry="12"/><g class="cls-6"><ellipse class="cls-7" cx="366" cy="176.5" rx="34" ry="105.5"/></g></symbol><symbol id="sender1" data-name="sender1" viewBox="0 0 400 800"><path class="cls-1" d="M226.32,242.25l39.55,41.42,67.21-67.13c2.58,2.32,7.18,0,12.46-.7,11.6-1.64,22.12,5,23.47,14.63s-7,18.44-18.58,20.07a25.13,25.13,0,0,1-7.09,0,11.41,11.41,0,0,1-4.45,1.63c-3.3.46-6.51-.55-6.32,1l-63,63.17-22.89,3.42a1.25,1.25,0,0,1-.15-.19l-.88-1.16s-55.65-63-57-65.6"/><path class="cls-1" d="M167.05,429.81v.05h0Z"/><path class="cls-1" d="M250.48,431.78l-.21-.92v-4.22l-7.13-149.83.08,0C244,260,242,247,238.14,232.11l-20-11.23V203H198v20l-10.43,5.87-14,7.88C167,249,167,260,170.21,278.75l1.59-.89L160,430c-4,21.46-.42,37.31,1,33l2,8,46.13-7C229.35,463.32,238.57,445.38,250.48,431.78Z"/><path class="cls-1" d="M209,463.47l.16.5.48,0Z"/><path class="cls-1" d="M206,459.15h-.48l27.95,103.4v.09l.46,5.12,12,133.77a13,13,0,0,0,.37,3.76,12.38,12.38,0,0,0-.72,3.61C245,720.54,260.85,717,280.85,718s36.61,6,37.16-5.63-13.59-18.61-33.59-19.56c-1.43-.07-4.54-.31-5.94-.28l-5.81-128.1v-.06l-1.41-6.63L249.83,430.24"/><path class="cls-1" d="M218,439l1.27,125.8.91,5.94c0,.2,0,.39,0,.59l-10,123.6c-.25,3.13,1.44,4.32,2,4.37,20,1.62,38.77,7.33,37.83,19s-19.92,7.91-39.87,6.29-37,.23-36.06-11.39a13.72,13.72,0,0,1,3.21-7.59,13.14,13.14,0,0,1-.91-6L181,569.94v-.06l.07-2v-.2l-21-104,.23,0-.23,0-.19-.9"/><path class="cls-1" d="M169.75,242.4l-16.36,95.53,3.49,9a.34.34,0,0,0,0,.12l2.17,4.2,79.27,61.94c-4.11,8-.18,18.79,9.23,24.75,9.85,6.24,22,4.77,27-3.27s1.25-19.62-8.6-25.86a24.42,24.42,0,0,0-2.64-1.46,11.44,11.44,0,0,0-3.86-4.06,9.42,9.42,0,0,0-1.4-.75L191.57,341a20.39,20.39,0,0,0,.43-3.71h0L196.54,279"/><path class="cls-1" d="M203.9,209.35a76.28,76.28,0,1,0-17.83-2.54l-.09.64,17.85,2.42Z"/><path class="cls-2" d="M274.32,144.13c25.41,16.16,9.44,25.76-4.84,27.2"/><path class="cls-3" d="M190.29,116.3c-4.88-.66-10,7.66-11.51,18.58s1.28,20.31,6.16,21"/><rect class="cls-4" width="400" height="800"/><path class="cls-5" d="M329.69,249.13l-1.81-.44A12,12,0,0,1,319,234.22l15.46-64.17A12,12,0,0,1,349,161.19l1.81.44a12,12,0,0,1,8.86,14.48l-15.46,64.16A12,12,0,0,1,329.69,249.13Z"/></symbol><symbol id="sender2" data-name="sender2" viewBox="0 0 400 800"><path class="cls-1" d="M226.58,278.77l12,56,92.41-22c1,3.34,6.11,3.8,11,5.93,10.73,4.69,16.19,15.89,12.32,24.77s-15.61,12-26.34,7.36a25.44,25.44,0,0,1-6-3.72,11.4,11.4,0,0,1-4.64-.94c-3.06-1.34-5.26-3.88-5.91-2.46l-86.77,20.79-21.29-9.08a2.24,2.24,0,0,1,0-.24l-.14-1.45S188.73,271,188.92,268"/><path class="cls-1" d="M167.05,429.81v.05h0Z"/><path class="cls-1" d="M250.48,431.78l-.21-.92v-4.22l-7.13-149.83.08,0C244,260,242,247,238.14,232.11l-20-11.23V203H198v20l-10.43,5.87-14,7.88C167,249,167,260,170.21,278.75l1.59-.89L160,430c-4,21.46-.42,37.31,1,33l2,8,46.13-7C229.35,463.32,238.57,445.38,250.48,431.78Z"/><path class="cls-1" d="M209,463.47l.16.5.48,0Z"/><path class="cls-1" d="M206,459.15h-.48l27.95,103.4v.09l.46,5.12,12,133.77a13,13,0,0,0,.37,3.76,12.38,12.38,0,0,0-.72,3.61C245,720.54,260.85,717,280.85,718s36.61,6,37.16-5.63-13.59-18.61-33.59-19.56c-1.43-.07-4.54-.31-5.94-.28l-5.81-128.1v-.06l-1.41-6.63L249.83,430.24"/><path class="cls-1" d="M218,439l1.27,125.8.91,5.94c0,.2,0,.39,0,.59l-10,123.6c-.25,3.13,1.44,4.32,2,4.37,20,1.62,38.77,7.33,37.83,19s-19.92,7.91-39.87,6.29-37,.23-36.06-11.39a13.72,13.72,0,0,1,3.21-7.59,13.14,13.14,0,0,1-.91-6L181,569.94v-.06l.07-2v-.2l-21-104,.23,0-.23,0-.19-.9"/><path class="cls-1" d="M196.46,210.62a76.25,76.25,0,1,0-15.92-8.41l-.3.57,16,8.3Z"/><path class="cls-2" d="M284.79,173.05C303.23,196.84,285,200.48,271,197"/><path class="cls-3" d="M215.1,118.44c-4.36-2.26-12,3.82-17.1,13.6s-5.66,19.55-1.3,21.82"/><rect class="cls-4" width="400" height="800"/><path class="cls-5" d="M311,338.78l-1.31-1.32a12,12,0,0,1,0-17l46.79-46.55a12,12,0,0,1,17,0l1.31,1.32a12,12,0,0,1,0,17L328,338.82A12,12,0,0,1,311,338.78Z"/><path class="cls-1" d="M204.58,274.77l12,56,92.41-22c1,3.34,6.11,3.8,11,5.93,10.73,4.69,16.19,15.89,12.32,24.77s-15.61,12-26.34,7.36a25.44,25.44,0,0,1-6-3.72,11.4,11.4,0,0,1-4.64-.94c-3.06-1.34-5.26-3.88-5.91-2.46l-86.77,20.79-21.29-9.08a2.24,2.24,0,0,1,0-.24l-.14-1.45S166.73,267,166.92,264"/></symbol><symbol id="gaar1" data-name="gaar1" viewBox="0 0 400 800"><path class="cls-1" d="M167.05,429.81v.05h0Z"/><path class="cls-1" d="M250.48,431.78l-.21-.92v-4.22l-7.13-149.83.08,0C244,260,242,247,238.14,232.11l-20-11.23V203H198v20l-10.43,5.87-14,7.88C167,249,167,260,170.21,278.75l1.59-.89-4.72,152.05C164,448,162,445,161,463l2,8,46.13-7C229.35,463.32,238.57,445.38,250.48,431.78Z"/><path class="cls-1" d="M209,463.47l.16.5.48,0Z"/><path class="cls-1" d="M206,459.15h-.48L243,526,209.92,627.52l-.35,7.37C209,646.54,210,640,225,660c12,16,24.13,28.57,33,21,18.32-15.65-14.68-48-20-46l48.67-113.6v-.06l-1.41-6.63-35.42-84.47"/><path class="cls-1" d="M219.56,415.42,206.11,540.5l.2,6c0,.2-.06.39-.1.58L181.79,668.67c-.62,3.07,36.64,46.78,24.21,48.33,8-1-28.49,9.19-42.69-4.93C156.33,705.14,151,695,146,683c-1.06-2.55,1.29-11.61,1.7-13.67l19.79-128.2,0-.06.31-2,0-.2-8.65-105.7.23.05-.23-.05L165,381"/><path class="cls-1" d="M173.58,237.16l-27.59,74-4,13.89a.47.47,0,0,0,0,.12l1.17,4.58L168.78,423c-5.82,6.82-4.46,18.25,3.33,26.2,8.17,8.32,20.29,9.66,27.09,3s5.69-18.81-2.48-27.14a24.8,24.8,0,0,0-2.23-2,11.38,11.38,0,0,0-2.83-4.83,9,9,0,0,0-1.19-1.05l-13.38-90a20.83,20.83,0,0,0,1.28-3.51h0l12.46-50.75"/><path class="cls-1" d="M214.05,209.48a76.28,76.28,0,1,0-18-.13V210h18Z"/><path class="cls-2" d="M275.1,135.41c27.34,12.61,12.8,24.26-1.16,27.6"/><path class="cls-3" d="M188.09,119.09c-4.92,0-8.91,8.93-8.91,19.95s4,20,8.91,20"/><rect class="cls-4" width="400" height="800"/></symbol><symbol id="gaar2" data-name="gaar2" viewBox="0 0 400 800"><path class="cls-1" d="M224.58,302.64l-23.24,51.59L287.64,392c-1.17,3.24,2.62,6.66,5.26,11.27,5.79,10.12,3.57,22.27-4.69,27s-19.45.25-25.24-9.87a25.66,25.66,0,0,1-2.63-6.56,11.41,11.41,0,0,1-3.13-3.52c-1.65-2.89-1.91-6.21-3.27-5.47l-81.11-35.3-11.61-19.91a2,2,0,0,1,.11-.21l.74-1.23s37-74.3,38.87-76.53"/><path class="cls-1" d="M167.05,429.81v.05h0Z"/><path class="cls-1" d="M250.48,446.78l-.21-.92v-4.22l-7.13-149.83.08,0C244,275,242,262,238.14,247.11l-20-11.23V218H198v20l-10.43,5.87-14,7.88C167,264,167,275,170.21,293.75l1.59-.89-4.72,152.05C164,463,162,460,161,478l2,8,46.13-7C229.35,478.32,238.57,460.38,250.48,446.78Z"/><path class="cls-1" d="M209,463.47l.16.5.48,0Z"/><path class="cls-1" d="M199.43,456.31l-.45-.14L220,521l-81.39,78.85-2.46,7c-3.87,11-15.89,24.28-18.15,49.18-2,22-.66,28.71,10,24,22-9.74,38.66-55.38,33-55l96-76h0l2.41-16.73-9.71-91.08"/><path class="cls-1" d="M219.56,416.42,206.11,541.5l.2,6c0,.2-.06.39-.1.58L181.79,669.67c-.62,3.07,50.64,18.78,38.21,20.33,8-1,9,22-5,24-9.74,1.39-47,3-57-5-2.16-1.73-5.7-32.33-5-37l14.49-129.87,0-.06.31-2,0-.2-8.65-105.7.23.05-.23-.05L168,400"/><path class="cls-1" d="M173.37,252.59l-24.16,75.19-3.39,14.06a.53.53,0,0,0,0,.13l1.37,4.52,29.91,92c-5.5,7.07-3.62,18.44,4.53,26,8.54,7.94,20.71,8.72,27.19,1.74s4.83-19.05-3.71-27a24.34,24.34,0,0,0-2.32-1.92,11.56,11.56,0,0,0-3.05-4.7,10.34,10.34,0,0,0-1.24-1L181,342.31a19.51,19.51,0,0,0,1.11-3.56v0l10.12-51.27"/><path class="cls-1" d="M214.05,224.48a76.28,76.28,0,1,0-18-.13V225h18Z"/><path class="cls-2" d="M275.1,150.41c27.34,12.61,12.8,24.26-1.16,27.6"/><path class="cls-3" d="M188.09,134.09c-4.92,0-8.91,8.93-8.91,19.95s4,20,8.91,20"/><rect class="cls-4" width="400" height="800"/></symbol><symbol id="gaar3" data-name="gaar3" viewBox="0 0 400 800"><path class="cls-1" d="M224.58,302.64l-23.24,51.59L287.64,392c-1.17,3.24,2.62,6.66,5.26,11.27,5.79,10.12,3.57,22.27-4.69,27s-19.45.25-25.24-9.87a25.66,25.66,0,0,1-2.63-6.56,11.41,11.41,0,0,1-3.13-3.52c-1.65-2.89-1.91-6.21-3.27-5.47l-81.11-35.3-11.61-19.91a2,2,0,0,1,.11-.21l.74-1.23s37-74.3,38.87-76.53"/><path class="cls-1" d="M167.05,429.81v.05h0Z"/><path class="cls-1" d="M250.48,446.78,250,432l.27,9.64-7.13-149.83.08,0C244,275,242,262,238.14,247.11l-20-11.23V218H198v20l-10.43,5.87-14,7.88C167,264,167,275,170.21,293.75l1.59-.89-4.72,152.05C164,463,174,445,173,463l4,6,32.13,10C229.35,478.32,238.57,460.38,250.48,446.78Z"/><path class="cls-1" d="M209,463.47l.16.5.48,0Z"/><path class="cls-1" d="M197.39,445.09c-.13-.08-5.26-2-5.39-2.09L150,554,82,627c-.77,1-13.27,14-14,15-6.88,9.42,8,10,15,31s22.43,34.44,34,33c23.9-3-5.52-50.19-11-51.46L185,574l4-4.87L250,447"/><path class="cls-1" d="M222.83,429.14,287,525l4,10c0,.2-4,18.8-4,19L268,669c-.11,3.13,44,7.44,32,11,7.73-2.29,9.49,21.74-4,26-9.38,3-47.83-7.74-59-14-2.41-1.35-1.93-18.27-2-23l12-132s-81-72-81-80c-3-5-1-7-1-10l4-26"/><path class="cls-1" d="M173.37,252.59l-24.16,75.19-3.39,14.06a.53.53,0,0,0,0,.13l1.37,4.52,29.91,92c-5.5,7.07-3.62,18.44,4.53,26,8.54,7.94,20.71,8.72,27.19,1.74s4.83-19.05-3.71-27a24.34,24.34,0,0,0-2.32-1.92,11.56,11.56,0,0,0-3.05-4.7,10.34,10.34,0,0,0-1.24-1L181,342.31a19.51,19.51,0,0,0,1.11-3.56v0l10.12-51.27"/><path class="cls-1" d="M214.05,224.48a76.28,76.28,0,1,0-18-.13V225h18Z"/><path class="cls-2" d="M275.1,150.41c27.34,12.61,12.8,24.26-1.16,27.6"/><path class="cls-3" d="M188.09,134.09c-4.92,0-8.91,8.93-8.91,19.95s4,20,8.91,20"/><rect class="cls-4" width="400" height="800"/></symbol><symbol id="gaar4" data-name="gaar4" viewBox="0 0 400 800"><path class="cls-1" d="M199.34,248.61,160,317.08l-6.26,13c0,.05,0,.09,0,.13l.4,4.71,10,96.21c-6.86,5.77-7.4,17.27-1,26.39,6.69,9.56,18.43,12.87,26.23,7.41s8.71-17.62,2-27.18a25.5,25.5,0,0,0-1.87-2.36,11.46,11.46,0,0,0-2-5.23,9.32,9.32,0,0,0-1-1.23L188,338a21.44,21.44,0,0,0,1.84-3.25v0l20.64-48"/><path class="cls-1" d="M167.05,429.81v.05h0Z"/><path class="cls-1" d="M250.48,446.78,250,432l.27,9.64-7.13-149.83.08,0C244,275,242,262,238.14,247.11l-20-11.23V218H198v20l-10.43,5.87-14,7.88C167,264,171.8,292.86,171.8,292.86l-4.72,152.05C164,463,174,445,173,463l4,6,32.13,10C229.35,478.32,238.57,460.38,250.48,446.78Z"/><path class="cls-1" d="M209,463.47l.16.5.48,0Z"/><path class="cls-1" d="M171.35,438c-.14-.07-5.45-1.39-5.59-1.46l-28.94,115.1L77.68,632c-.64,1.13-11.56,15.43-12.18,16.52-5.74,10.14,9.1,9,18.47,29.06s26.25,31.63,37.58,28.87c23.4-5.71-11.26-49.22-16.9-49.85l69.24-89.11,3.39-5.29,46.56-128.35"/><path class="cls-1" d="M224,434l52,98,5,16c0,.2,14,116,14,116,.26,3.12,42.52-12.93,31-8,7.41-3.17,19.9,28.21,7,34-9,4-48.18,10.93-60,6-2.55-1.06-10.24-24-10.86-28.66L240,554s-70-81.32-70.89-89.26c-3.56-4.62-1.81-6.84-2.15-9.82l1-26.29"/><path class="cls-1" d="M170.93,261.69l3.37,78.92L176,355a.37.37,0,0,0,0,.11l2.85,3.77,59.91,75.94c-2.71,8.54,3,18.55,13.27,22.84,10.75,4.49,22.44,1,26.11-7.78s-2.07-19.54-12.83-24a26,26,0,0,0-2.85-1,11.46,11.46,0,0,0-4.48-3.36,12.13,12.13,0,0,0-1.51-.5l-47.34-77.74a20.11,20.11,0,0,0-.2-3.73h0l-8.26-51.6"/><path class="cls-1" d="M214.05,224.48a76.28,76.28,0,1,0-18-.13V225h18Z"/><path class="cls-2" d="M275.1,150.41c27.34,12.61,12.8,24.26-1.16,27.6"/><path class="cls-3" d="M188.09,134.09c-4.92,0-8.91,8.93-8.91,19.95s4,20,8.91,20"/><rect class="cls-4" width="400" height="800"/></symbol><symbol id="gaar5" data-name="gaar5" viewBox="0 0 400 800"><path class="cls-1" d="M167.05,429.81v.05h0Z"/><path class="cls-1" d="M250.48,419.78,250,405l.27,9.64-7.13-149.83.08,0C244,248,242,235,238.14,220.11l-20-11.23V191H198v20l-10.43,5.87-14,7.88C167,237,171.8,265.86,171.8,265.86l-4.72,152.05C164,436,174,418,173,436l4,6,32.13,10C229.35,451.32,238.57,433.38,250.48,419.78Z"/><path class="cls-1" d="M209,463.47l.16.5.48,0Z"/><path class="cls-1" d="M186.35,434c-.14-.07-5.45-1.39-5.59-1.46L172,543,160.68,644c-.64,1.13-1.07,12.93-1.68,14-5.75,10.15,2.63,28,12,48s24.6,9.55,36,12c19.44,4.19-23.75-32.12-19.35-49.41L209,558l4-16,25.84-112.16"/><path class="cls-1" d="M224,405l58,87-1,27c0,.2-40,103-40,103,.26,3.12,31,32,25,42-2,4-3.1,3.21-16,9-9,4-17-15-28-26-1.95-2-13.24-17-13.86-21.66L242,511s-72-67.32-72.89-75.26c-3.56-4.62-1.81-6.84-2.15-9.82l1-26.29"/><path class="cls-1" d="M202.21,224.57l-19.34,76.58-2.49,14.24a.51.51,0,0,0,0,.13l1.66,4.43,35.69,89.9c-5,7.41-2.44,18.63,6.17,25.68,9,7.38,21.22,7.38,27.25,0s3.61-19.32-5.42-26.7a24,24,0,0,0-2.44-1.77,11.57,11.57,0,0,0-3.34-4.5,11.27,11.27,0,0,0-1.3-.91l-23.13-88a21.32,21.32,0,0,0,.88-3.63h0l6.85-51.82"/><path class="cls-1" d="M214.05,197.48a76.28,76.28,0,1,0-18-.13V198h18Z"/><path class="cls-2" d="M275.1,123.41c27.34,12.61,12.8,24.26-1.16,27.6"/><path class="cls-3" d="M188.09,107.09c-4.92,0-8.91,8.93-8.91,20s4,20,8.91,20"/><rect class="cls-4" width="400" height="800"/></symbol><symbol id="gaar6" data-name="gaar6" viewBox="0 0 400 800"><path class="cls-1" d="M224.58,302.64l-23.24,51.59L287.64,392c-1.17,3.24,2.62,6.66,5.26,11.27,5.79,10.12,3.57,22.27-4.69,27s-19.45.25-25.24-9.87a25.66,25.66,0,0,1-2.63-6.56,11.41,11.41,0,0,1-3.13-3.52c-1.65-2.89-1.91-6.21-3.27-5.47l-81.11-35.3-11.61-19.91a2,2,0,0,1,.11-.21l.74-1.23s37-74.3,38.87-76.53"/><path class="cls-1" d="M167.05,429.81v.05h0Z"/><path class="cls-1" d="M250.48,446.78l-.21-.92v-4.22l-7.13-149.83.08,0C244,275,242,262,238.14,247.11l-20-11.23V218H198v20l-10.43,5.87-14,7.88C167,264,167,275,170.21,293.75l1.59-.89-4.72,152.05C164,463,162,460,161,478l2,8,46.13-7C229.35,478.32,238.57,460.38,250.48,446.78Z"/><path class="cls-1" d="M209,463.47l.16.5.48,0Z"/><path class="cls-1" d="M215,461l-8.89,80.5.2,6c0,.2-.06.39-.1.58L181.79,669.67c-.62,3.07,50.64,18.78,38.21,20.33,8-1,9,22-5,24-9.74,1.39-47,3-57-5-2.16-1.73-5.7-32.33-5-37l14.49-129.87,0-.06.31-2,0-.2-8.65-105.7.23.05-.23-.05L168,400"/><path class="cls-1" d="M199.43,456.31l-.45-.14L220,521l-81.39,78.85-2.46,7c-3.87,11-15.89,24.28-18.15,49.18-2,22-.66,28.71,10,24,22-9.74,38.66-55.38,33-55l96-76h0l2.41-16.73-9.71-91.08"/><path class="cls-1" d="M173.37,252.59l-24.16,75.19-3.39,14.06a.53.53,0,0,0,0,.13l1.37,4.52,29.91,92c-5.5,7.07-3.62,18.44,4.53,26,8.54,7.94,20.71,8.72,27.19,1.74s4.83-19.05-3.71-27a24.34,24.34,0,0,0-2.32-1.92,11.56,11.56,0,0,0-3.05-4.7,10.34,10.34,0,0,0-1.24-1L181,342.31a19.51,19.51,0,0,0,1.11-3.56v0l10.12-51.27"/><path class="cls-1" d="M214.05,224.48a76.28,76.28,0,1,0-18-.13V225h18Z"/><path class="cls-2" d="M275.1,150.41c27.34,12.61,12.8,24.26-1.16,27.6"/><path class="cls-3" d="M188.09,134.09c-4.92,0-8.91,8.93-8.91,19.95s4,20,8.91,20"/><rect class="cls-4" width="400" height="800"/></symbol><symbol id="gaar7" data-name="gaar7" viewBox="0 0 400 800"><path class="cls-1" d="M224.58,302.64l-23.24,51.59L287.64,392c-1.17,3.24,2.62,6.66,5.26,11.27,5.79,10.12,3.57,22.27-4.69,27s-19.45.25-25.24-9.87a25.66,25.66,0,0,1-2.63-6.56,11.41,11.41,0,0,1-3.13-3.52c-1.65-2.89-1.91-6.21-3.27-5.47l-81.11-35.3-11.61-19.91a2,2,0,0,1,.11-.21l.74-1.23s37-74.3,38.87-76.53"/><path class="cls-1" d="M167.05,429.81v.05h0Z"/><path class="cls-1" d="M222.83,429.14,287,525l4,10c0,.2-4,18.8-4,19L268,669c-.11,3.13,44,7.44,32,11,7.73-2.29,9.49,21.74-4,26-9.38,3-47.83-7.74-59-14-2.41-1.35-1.93-18.27-2-23l12-132s-81-72-81-80c-3-5-1-7-1-10l4-26"/><path class="cls-1" d="M250.48,446.78,250,432l.27,9.64-7.13-149.83.08,0C244,275,242,262,238.14,247.11l-20-11.23V218H198v20l-10.43,5.87-14,7.88C167,264,167,275,170.21,293.75l1.59-.89-4.72,152.05C164,463,174,445,173,463l4,6,32.13,10C229.35,478.32,238.57,460.38,250.48,446.78Z"/><path class="cls-1" d="M209,463.47l.16.5.48,0Z"/><path class="cls-1" d="M197.39,445.09c-.13-.08-5.26-2-5.39-2.09L150,554,82,627c-.77,1-13.27,14-14,15-6.88,9.42,8,10,15,31s22.43,34.44,34,33c23.9-3-5.52-50.19-11-51.46L185,574l4-4.87L250,447"/><path class="cls-1" d="M173.37,252.59l-24.16,75.19-3.39,14.06a.53.53,0,0,0,0,.13l1.37,4.52,29.91,92c-5.5,7.07-3.62,18.44,4.53,26,8.54,7.94,20.71,8.72,27.19,1.74s4.83-19.05-3.71-27a24.34,24.34,0,0,0-2.32-1.92,11.56,11.56,0,0,0-3.05-4.7,10.34,10.34,0,0,0-1.24-1L181,342.31a19.51,19.51,0,0,0,1.11-3.56v0l10.12-51.27"/><path class="cls-1" d="M214.05,224.48a76.28,76.28,0,1,0-18-.13V225h18Z"/><path class="cls-2" d="M275.1,150.41c27.34,12.61,12.8,24.26-1.16,27.6"/><path class="cls-3" d="M188.09,134.09c-4.92,0-8.91,8.93-8.91,19.95s4,20,8.91,20"/><rect class="cls-4" width="400" height="800"/></symbol><symbol id="gaar8" data-name="gaar8" viewBox="0 0 400 800"><path class="cls-1" d="M199.34,248.61,160,317.08l-6.26,13c0,.05,0,.09,0,.13l.4,4.71,10,96.21c-6.86,5.77-7.4,17.27-1,26.39,6.69,9.56,18.43,12.87,26.23,7.41s8.71-17.62,2-27.18a25.5,25.5,0,0,0-1.87-2.36,11.46,11.46,0,0,0-2-5.23,9.32,9.32,0,0,0-1-1.23L188,338a21.44,21.44,0,0,0,1.84-3.25v0l20.64-48"/><path class="cls-1" d="M167.05,429.81v.05h0Z"/><path class="cls-1" d="M250.48,446.78,250,432l.27,9.64-7.13-149.83.08,0C244,275,242,262,238.14,247.11l-20-11.23V218H198v20l-10.43,5.87-14,7.88C167,264,171.8,292.86,171.8,292.86l-4.72,152.05C164,463,174,445,173,463l4,6,32.13,10C229.35,478.32,238.57,460.38,250.48,446.78Z"/><path class="cls-1" d="M241,432l35,100,5,16c0,.2,14,116,14,116,.26,3.12,42.52-12.93,31-8,7.41-3.17,19.9,28.21,7,34-9,4-48.18,10.93-60,6-2.55-1.06-10.24-24-10.86-28.66L240,554S179.92,464,179,456c-3.56-4.62-11.7,1.9-12-1.08l1-26.29"/><path class="cls-1" d="M209,463.47l.16.5.48,0Z"/><path class="cls-1" d="M167,430c-.14-.07-1.1,6.62-1.24,6.55l-28.94,115.1L77.68,632c-.64,1.13-11.56,15.43-12.18,16.52-5.74,10.14,9.1,9,18.47,29.06s26.25,31.63,37.58,28.87c23.4-5.71-11.26-49.22-16.9-49.85l69.24-89.11,3.39-5.29,46.56-128.35"/><path class="cls-1" d="M170.93,261.69l3.37,78.92L176,355a.37.37,0,0,0,0,.11l2.85,3.77,59.91,75.94c-2.71,8.54,3,18.55,13.27,22.84,10.75,4.49,22.44,1,26.11-7.78s-2.07-19.54-12.83-24a26,26,0,0,0-2.85-1,11.46,11.46,0,0,0-4.48-3.36,12.13,12.13,0,0,0-1.51-.5l-47.34-77.74a20.11,20.11,0,0,0-.2-3.73h0l-8.26-51.6"/><path class="cls-1" d="M214.05,224.48a76.28,76.28,0,1,0-18-.13V225h18Z"/><path class="cls-2" d="M275.1,150.41c27.34,12.61,12.8,24.26-1.16,27.6"/><path class="cls-3" d="M188.09,134.09c-4.92,0-8.91,8.93-8.91,19.95s4,20,8.91,20"/><rect class="cls-4" width="400" height="800"/></symbol></defs><title>p1</title><g id="Lag_2" data-name="Lag 2"><g id="start"><use width="400" height="800" xlink:href="#start1"/><use width="400" height="800" transform="translate(408.5)" xlink:href="#start2"/><use width="400" height="800" transform="translate(808.5)" xlink:href="#start3"/><use width="400" height="800" transform="translate(1208.5)" xlink:href="#start4"/><use width="400" height="800" transform="translate(1608.5)" xlink:href="#start5"/><use width="400" height="800" transform="translate(2008.52)" xlink:href="#start6"/><use width="400" height="800" transform="translate(2408.5)" xlink:href="#start7"/></g><g id="sender"><use width="400" height="800" transform="translate(0 1600)" xlink:href="#billede1"/><use width="400" height="800" transform="translate(408.5 1600)" xlink:href="#billede2"/><use width="400" height="800" transform="translate(808.5 1600)" xlink:href="#billede3"/><use width="400" height="800" transform="translate(1208.5 1600)" xlink:href="#billede4"/><use width="400" height="800" transform="translate(1608.5 1600)" xlink:href="#billede5"/><use width="407.2" height="800" transform="translate(2005 1600)" xlink:href="#billede6"/><use width="400" height="800" transform="translate(2408.5 1600)" xlink:href="#billede5"/><use width="400" height="800" transform="translate(2807.04 1600)" xlink:href="#sender1"/><use width="400" height="800" transform="translate(3207.04 1600)" xlink:href="#sender2"/></g><g id="går"><use width="400" height="800" transform="translate(2807.04 800)" xlink:href="#gaar1"/><use width="400" height="800" transform="translate(2408.5 800)" xlink:href="#gaar2"/><use width="400" height="800" transform="translate(2008.52 800)" xlink:href="#gaar3"/><use width="400" height="800" transform="translate(1608.5 800)" xlink:href="#gaar4"/><use width="400" height="800" transform="translate(1208.5 800)" xlink:href="#gaar5"/><use width="400" height="800" transform="translate(808.5 800)" xlink:href="#gaar6"/><use width="400" height="800" transform="translate(408.5 800)" xlink:href="#gaar7"/><use width="400" height="800" transform="translate(0 800)" xlink:href="#gaar8"/></g></g></svg>
