<svg xmlns="http://www.w3.org/2000/svg" viewBox="0 0 1600 2400"><defs><style>.cls-1,.cls-2{fill:#f28519;}.cls-1,.cls-3,.cls-4,.cls-6{stroke:#bf621c;}.cls-1,.cls-4{stroke-linecap:round;stroke-linejoin:round;}.cls-1,.cls-4,.cls-6{stroke-width:2px;}.cls-3,.cls-4,.cls-5,.cls-6{fill:none;}.cls-3,.cls-6{stroke-miterlimit:10;}.cls-3{stroke-width:3px;}.cls-7{fill:#98bdd4;}</style></defs><title>p2</title><g id="Lag_2" data-name="Lag 2"><g id="Nyt_sprite_p2" data-name="Nyt sprite p2"><ellipse class="cls-1" cx="132.5" cy="157.5" rx="6" ry="15.5"/><ellipse class="cls-1" cx="278.5" cy="156.5" rx="6" ry="15.5"/><path class="cls-1" d="M168.18,439.8,146.67,561.4l-1.16,5.54c0,.19,0,.37,0,.56V685c0,3-1.5,4-2,4-16.84,0-33,4-33,15s16.16,9,33,9,31,3,31-8a14.1,14.1,0,0,0-2.17-7.41A13.88,13.88,0,0,0,173.5,692l4.91-122.81v-.06l.08-1.94V567l24.55-96.24.23-.91"/><path class="cls-1" d="M168.5,445l-.14.78.14.13Z"/><path class="cls-1" d="M203.92,477.46l1.43,1.4c13.12-8.13,26-17.45,33.59-30.68L238.5,446v-4l-6-142,.56.35A62.11,62.11,0,0,0,228.92,258L211.5,247V229.56a72,72,0,1,0-17-.12V249l-9,6.1c-.37.88.28.78-.06,1.68-5.49,14.74-6.37,31-12.93,45.21l-4,143.92"/><path class="cls-1" d="M203.84,475.7,230.5,569v.08l.59,4.83L246.5,700a13.82,13.82,0,0,0,.46,3.55,13.28,13.28,0,0,0-.46,3.45c0,11,13.16,7,30,7s31,4,31-7-12.16-17-29-17c-1.21,0-3.83-.09-5,0l-10-121v-.06L262,562.73l-23.78-118"/><path class="cls-1" d="M79.5,322.76v.6a1.64,1.64,0,0,0,.44,1.11l60,64.28c-1.89,7.31,4.17,15.85,14.07,19.5,10.36,3.83,21,.83,23.78-6.68s-3.38-16.7-13.75-20.52a26,26,0,0,0-2.73-.85,12.14,12.14,0,0,0-4.43-2.86,11.24,11.24,0,0,0-1.44-.43L117.5,328c-9.48,3.16-27.57-9.92-37.3-6.3A1.12,1.12,0,0,0,79.5,322.76Z"/><path class="cls-2" d="M114.65,331.37h0l64.27-34,11.73-44.23-97.92,58.9-12,7.82-.29.23-.19.18a2.37,2.37,0,0,0-.75,1.67v1c12,3.42,20.33,6.9,30.71,11.14l.63-.79A34.87,34.87,0,0,0,114.65,331.37Z"/><path class="cls-1" d="M232.44,299.22,250.5,355l75.57,41.86A24.65,24.65,0,0,0,322.5,410c0,11.05,6.49,20,14.5,20s14.5-8.95,14.5-20a26.82,26.82,0,0,0-.82-6.63,12,12,0,0,0-2.35-12.51L289.5,355l-16-9c-.06-.05-2.94-4-3-4l-6-14-36.4-71.22"/><path class="cls-3" d="M199.86,156.52c-28.13,13-12.69,23.49-1.09,26.16"/><line class="cls-4" x1="79.51" y1="321.96" x2="187.5" y2="254"/><line class="cls-1" x1="118.5" y1="329" x2="173.5" y2="300"/><rect class="cls-5" width="400" height="800"/><rect class="cls-5" y="800" width="400" height="800"/><ellipse class="cls-1" cx="136.96" cy="941.96" rx="6" ry="16.25"/><ellipse class="cls-1" cx="283" cy="940.92" rx="6" ry="16.25"/><path class="cls-1" d="M166,1241.19l-.17.83.17.13Z"/><path class="cls-1" d="M165.82,1240c-2.22,33-6.34,100.19-8.35,126.68s-.05-3-1,11.59c-.14,2,0,0,.07.32,5.09,42.29,9.28,85.62,14.22,126.65.5,4.15-1.43,4.61-1.78,4.67-11.79,2.11-38.81,5-37,20.42s29.83,6.27,39.76,5.48,35,1.48,36-12.57c.23-3.33-1.87-5.17-3.3-7.63.52-3,1-2.19.58-7.62-2.08-33.33-6.57-101.84-8.34-126.47s0,3.54-.33-4.94-.62,3.22-.13-3.53-1.95,12.8.53-4.24,12.08-83.2,14.68-100.83"/><path class="cls-1" d="M280,942.49C280,900.8,247.75,867,208,867s-72,33.8-72,75.49c0,38.49,27.5,70.25,63,74.9v1c5.59-1.87,11.37-.65,17,.64v-1.48C252,1013.34,280,981.34,280,942.49Z"/><path class="cls-2" d="M197.31,1013.15v19.79l-9.7,5.42c-.44.94-3.28,4.31-3.69,5.26-6.62,15.66-5.28,30.52-13.18,45.63L166,1242.15s45.27,27.28,45.84,27.78c15.82-8.64,30-11.31,39.13-25.37l-.53-2.31V1238l-7.24-128,4.3-22.55c-4.94-14.52-6.31-29-7.41-43.75l-22.22-12.93v-17C211,1012.49,204.06,1011.25,197.31,1013.15Z"/><path class="cls-1" d="M197.5,1033l-9.84,5.3L124,1116.22l-8.89,11.64a.56.56,0,0,0,0,.12l-.58,4.73-9.86,97.07c-8,4.34-10.89,15.6-6.43,25.89,4.68,10.77,15.65,16.37,24.51,12.53s12.26-15.69,7.59-26.46a25.28,25.28,0,0,0-1.37-2.7,11.5,11.5,0,0,0-.91-5.58,9.93,9.93,0,0,0-.74-1.41l20.28-89.63a20.76,20.76,0,0,0,2.48-2.85v0l20.72-24L165.5,1242"/><path class="cls-1" d="M238.33,1043.13l67.11,73.43,1,1.06a.93.93,0,0,1,.16.18l3.93,15.4,23.63,92.39a11.92,11.92,0,0,1,1,9.4,11.49,11.49,0,0,1-2.35,4.13,25.63,25.63,0,0,1-1.19,7c-3.56,11.19-13.9,17.88-23.11,15s-13.79-14.36-10.24-25.55a23.89,23.89,0,0,1,8.34-12l-29.75-84-33.73-33.7,6.95,135.07,28.69,125.34,1.75,6.6v.06l12.07,128.56c1.41-.1,4.57,0,6,0,20.31,0,35,6.32,35,18.06s-17.08,7.44-37.39,7.44-36.2,4.3-36.2-7.44a12.59,12.59,0,0,1,.56-3.66,13.2,13.2,0,0,1-.56-3.78l-18.57-134-.72-5.13v-.09l-29-104.21"/><path class="cls-1" d="M204.34,940.94c-28.14,13.67-12.7,24.63-1.09,27.42"/><line class="cls-4" x1="197.5" y1="1033" x2="197.5" y2="1017"/><line class="cls-4" x1="218.5" y1="1017" x2="218.5" y2="1031"/><line class="cls-4" x1="238.5" y1="1043" x2="218.5" y2="1031"/><ellipse class="cls-1" cx="538.96" cy="941.96" rx="6" ry="16.25"/><ellipse class="cls-1" cx="684" cy="940.92" rx="6" ry="16.25"/><path class="cls-1" d="M567,1241.19l-.17.83.17.13Z"/><path class="cls-1" d="M598.31,1013.15v19.79l-9.7,5.42c-.44.94-.87,1.89-1.27,2.85-6.63,15.66-7.7,32.93-15.6,48L567,1242.15l42.72,33.53,1.74,1.48c15.82-8.64,31.35-18.54,40.51-32.6l-.53-2.31V1238l-7.24-132.78,20-28.58c-4.94-14.52-16.36-16.62-24.29-34.1l-21-11.72v-17C612,1012.49,605.06,1011.25,598.31,1013.15Z"/><path class="cls-1" d="M566.82,1240c-2.22,33-6.34,100.19-8.35,126.68s-.05-3-1,11.59c-.14,2,0,0,.07.32,5.09,42.29,9.28,85.62,14.22,126.65.5,4.15-1.43,4.61-1.78,4.67-11.79,2.11-38.81,5-37,20.42s29.83,6.27,39.76,5.48,35,1.48,36-12.57c.23-3.33-1.87-5.17-3.3-7.63.52-3,1-2.19.58-7.62-2.08-33.33-6.57-101.84-8.34-126.47s0,3.54-.33-4.94-.62,3.22-.13-3.53-2,12.8.53-4.24,12.08-78.38,14.68-96"/><path class="cls-1" d="M681,942.49C681,900.8,648.75,867,609,867s-72,33.8-72,75.49c0,38.49,27.5,70.25,63,74.9v1c5.59-1.87,11.37-.65,17,.64v-1.48C653,1013.34,681,981.34,681,942.49Z"/><path class="cls-1" d="M613.2,1272.59l28.54,100.34v.09l.72,5.13,18.57,134a13.2,13.2,0,0,0,.56,3.78,12.59,12.59,0,0,0-.56,3.66c0,11.74,15.88,7.44,36.2,7.44s37.39,4.3,37.39-7.44-14.67-18.06-35-18.06c-1.46,0-4.62-.1-6,0l-12.07-128.56v-.06l-1.75-6.6L651.1,1240.93"/><path class="cls-1" d="M605.34,940.94c-28.14,13.67-12.7,24.63-1.09,27.42"/><circle class="cls-1" cx="605.55" cy="992.46" r="14.48"/><path class="cls-1" d="M588.66,1038.3,525,1116.22l-8.89,11.64a.56.56,0,0,0,0,.12l-.58,4.73-9.86,97.07c-8,4.34-10.89,15.6-6.43,25.89,4.68,10.77,15.65,16.37,24.51,12.53s12.26-15.69,7.59-26.46a25.28,25.28,0,0,0-1.37-2.7,11.5,11.5,0,0,0-.91-5.58,9.93,9.93,0,0,0-.74-1.41l20.28-89.63a20.76,20.76,0,0,0,2.48-2.85v0l20.72-24"/><path class="cls-1" d="M642.33,1108.31c10.24,10.79,17.33,17.5,27.53,28.33,7,25.61,5.21,51,4.78,77.18-4.45,1.6-9.29,4.08-11.87,8.1-5.69,8.83-7.23,19.95,1.94,26.79s19.46,1.89,26.37-5.8a24.16,24.16,0,0,0,3.35-6.05c1.34-1,2.58-1.58,3.51-3.09,1.9-3.1,2.54-4.84,2-9.69,3.92-24.23,8.3-96.65-2.08-109.79s-44.18-53.5-57.83-71.14"/><rect class="cls-5" x="400" y="800" width="400" height="800"/><ellipse class="cls-1" cx="937.02" cy="942.08" rx="6.01" ry="16.28"/><ellipse class="cls-1" cx="1083.27" cy="941.03" rx="6.01" ry="16.28"/><path class="cls-1" d="M966.05,1241.74l-.17.83.17.14Z"/><path class="cls-1" d="M1080.27,942.6c0-41.75-32.3-75.6-72.12-75.6S936,900.85,936,942.6c0,38.55,27.54,70.36,63.11,75v1c5.6-1.88,11.39-.65,17,.64v-1.49C1052.22,1013.56,1080.27,981.51,1080.27,942.6Z"/><path class="cls-1" d="M1136.62,1090.05l-102.91-47.87,7,39.93,78.53,29,7.12,15.69a1.52,1.52,0,0,0,2.8.33c6.81-8.69,8.81-7.57,14.44-15.9a7.71,7.71,0,0,0,.54-6.81l-6-12.89A3,3,0,0,0,1136.62,1090.05Z"/><path class="cls-2" d="M997.46,1013.36v19.83l-9.71,5.42c-.45,1-.88,1.9-1.28,2.86-6.64,15.68-7.7,33-15.62,48.11l-4.8,153.13,42.79,33.58,1.74,1.48c15.84-8.65,31.39-18.57,40.57-32.64l-.53-2.32v-4.26l-7.25-151.09.68.37c-5-14.55-2.69-29-3.79-43.82l-22.26-13v-17C1011.2,1012.71,1004.22,1011.46,997.46,1013.36Z"/><path class="cls-1" d="M1009.58,1113.19a12,12,0,0,0,9.13,2.52l94.73,12.15,14.17,1.82a3.13,3.13,0,0,0,2.72-1c4.09-4.49,17-20,17-20h0c-6.11-11.63-3.63-15.7-13.29-20.54l-103.2,2.76a23.94,23.94,0,0,0-8.09-12.19c-9.11-7.45-21.44-7.4-27.57.09s-3.71,19.59,5.39,27a25.46,25.46,0,0,0,6.09,3.7A11.36,11.36,0,0,0,1009.58,1113.19Z"/><path class="cls-1" d="M965.92,1240.59c-2.22,33.07-6.35,100.34-8.35,126.87s-.05-3.06-1.05,11.61c-.14,2,0,0,.07.32,5.1,42.35,9.29,85.75,14.24,126.84.5,4.15-1.43,4.61-1.79,4.67-11.8,2.12-38.86,5-37.07,20.46s29.87,6.27,39.81,5.49,35.06,1.48,36-12.59c.23-3.34-1.88-5.19-3.31-7.65.52-3,1-2.19.58-7.63-2.08-33.38-6.58-102-8.35-126.65s0,3.54-.33-4.95-.62,3.23-.13-3.53-1.95,12.81.53-4.25,13.3-76.08,15.91-93.73"/><path class="cls-1" d="M1012.37,1274.4l28.59,99.28v.09l.71,5.14,18.61,134.16a13.14,13.14,0,0,0,.55,3.78,12.65,12.65,0,0,0-.55,3.67c0,11.76,15.9,7.45,36.24,7.45s37.46,4.31,37.46-7.45-14.7-18.09-35-18.09c-1.46,0-4.63-.09-6,0l-12.08-128.75,0-.06-1.75-6.61-28.73-125.52"/><path class="cls-1" d="M1004.5,941.05c-28.18,13.69-12.72,24.67-1.09,27.46"/><circle class="cls-1" cx="1004.71" cy="992.65" r="14.5"/><path class="cls-1" d="M987.8,1038.56l-63.76,78-8.9,11.66a.56.56,0,0,0,0,.12l-.58,4.74-9.87,97.21c-8,4.35-10.91,15.63-6.44,25.93,4.68,10.78,15.66,16.4,24.54,12.54s12.28-15.71,7.6-26.49a25.44,25.44,0,0,0-1.37-2.71,11.6,11.6,0,0,0-.91-5.58,10.1,10.1,0,0,0-.75-1.42l20.32-89.76a20.26,20.26,0,0,0,2.48-2.86h0l20.75-24.08"/><line class="cls-1" x1="1042.62" y1="1082.84" x2="1060.14" y2="1089.47"/><line class="cls-4" x1="971" y1="1116" x2="966" y2="1242"/><line class="cls-4" x1="1045" y1="1119" x2="1051" y2="1243"/><line class="cls-4" x1="1043" y1="1084" x2="1043" y2="1090"/><line class="cls-4" x1="997" y1="1017" x2="997" y2="1033"/><line class="cls-4" x1="987" y1="1039" x2="997" y2="1033"/><line class="cls-4" x1="1018" y1="1017" x2="1018" y2="1031"/><line class="cls-4" x1="1041" y1="1046" x2="1018" y2="1031"/><rect class="cls-5" x="800" y="800" width="400" height="800"/><path class="cls-1" d="M1390.13,1091.42l83.88,25.44a8.19,8.19,0,0,0,10.42-6.32l4.79-25.56a4.11,4.11,0,0,0-3.38-4.8L1403,1067l-13.21-16.58c-5.19,12-8.26,13.48-12.26,25.51Z"/><ellipse class="cls-1" cx="1337.73" cy="942.08" rx="6.01" ry="16.28"/><ellipse class="cls-1" cx="1483.98" cy="941.03" rx="6.01" ry="16.28"/><path class="cls-1" d="M1366.76,1241.74l-.17.83.17.14Z"/><path class="cls-1" d="M1398.17,1013.36v19.83l-9.71,5.42c-.45,1-2.08,1.9-2.49,2.86-6.63,15.68-6.49,33-14.41,48.11l-4.8,153.13,42.79,33.58,1.74,1.48c15.84-8.65,31.39-18.57,40.57-32.64l-.53-2.32v-4.26l-7.25-151.09.68.37c-5-14.55-3.9-30.22-5-45l-21-11.74v-17C1411.91,1012.71,1404.93,1011.46,1398.17,1013.36Z"/><path class="cls-1" d="M1366.63,1240.59c-2.22,33.07-6.35,100.34-8.35,126.87s0-3.06-1,11.61c-.14,2,0,0,.07.32,5.1,42.35,9.29,85.75,14.24,126.84.5,4.15-1.43,4.61-1.79,4.67-11.8,2.12-38.86,5-37.07,20.46s29.87,6.27,39.81,5.49,35.06,1.48,36-12.59c.23-3.34-1.88-5.19-3.31-7.65.52-3,1-2.19.58-7.63-2.08-33.38-6.58-102-8.35-126.65s0,3.54-.33-4.95-.62,3.23-.13-3.53-2,12.81.53-4.25,12.1-79.71,14.7-97.36"/><path class="cls-1" d="M1481,942.6c0-41.75-32.3-75.6-72.12-75.6s-72.13,33.85-72.13,75.6c0,38.55,27.54,70.36,63.11,75v1c5.6-1.88,11.39-.65,17,.64v-1.49C1452.93,1013.56,1481,981.51,1481,942.6Z"/><path class="cls-1" d="M1411.88,1272l29.79,101.69v.09l.71,5.14L1461,1513.07a13.14,13.14,0,0,0,.55,3.78,12.65,12.65,0,0,0-.55,3.67c0,11.76,15.9,7.45,36.24,7.45s37.46,4.31,37.46-7.45-14.7-18.09-35-18.09c-1.46,0-4.63-.09-6,0l-12.08-128.75,0-.06-1.75-6.61L1451,1241.49"/><circle class="cls-1" cx="1405.42" cy="992.65" r="14.5"/><path class="cls-1" d="M1394.8,1034.27a11.89,11.89,0,0,0,5.86,7.44l66.38,73,6,1.21c.08,0,4.75,0,4.83,0l4.83-2.41c1.64-10.73,3-16,5.35-26.56a11,11,0,0,0-3.91-11l-59-47a24,24,0,0,0,.71-14.62c-2.92-11.39-12.87-18.67-22.25-16.27s-14.61,13.57-11.69,25a25.09,25.09,0,0,0,2.71,6.59A11.24,11.24,0,0,0,1394.8,1034.27Z"/><path class="cls-1" d="M1405.21,941.05c-28.18,13.69-12.72,24.67-1.09,27.46"/><path class="cls-1" d="M1388.51,1038.56l-63.76,78-8.9,11.66a.56.56,0,0,0,0,.12l-.58,4.74-9.87,97.21c-8,4.35-10.91,15.63-6.44,25.93,4.68,10.78,15.66,16.4,24.54,12.54s12.28-15.71,7.6-26.49a25.44,25.44,0,0,0-1.37-2.71,11.6,11.6,0,0,0-.91-5.58,10.1,10.1,0,0,0-.75-1.42l20.32-89.76a20.26,20.26,0,0,0,2.48-2.86h0l20.75-22.87"/><rect class="cls-5" x="1200" y="800" width="400" height="800"/><ellipse class="cls-1" cx="147.72" cy="1754.35" rx="5.97" ry="16.16"/><ellipse class="cls-1" cx="292.93" cy="1753.31" rx="5.97" ry="16.16"/><path class="cls-1" d="M176.54,2051.88l-.16.82.16.13Z"/><path class="cls-1" d="M176.42,2050.74c-2.21,32.83-6.31,99.62-8.3,126s-.05-3-1,11.52c-.14,2,0,.05.07.32,5.06,42.05,9.22,85.14,14.14,125.93.49,4.13-1.43,4.58-1.77,4.64-11.73,2.11-38.59,5-36.82,20.31s29.66,6.23,39.53,5.45,34.81,1.47,35.78-12.5c.23-3.31-1.86-5.14-3.29-7.59.52-2.94,1-2.18.58-7.57-2.07-33.14-6.53-101.26-8.29-125.75s0,3.52-.33-4.92-.61,3.21-.12-3.5-1.94,12.72.53-4.22,12-76.53,14.59-94.06"/><path class="cls-1" d="M289.94,1754.88c0-41.45-32.06-75.06-71.6-75.06s-71.61,33.61-71.61,75.06c0,38.27,27.34,69.85,62.66,74.47v1c5.56-1.86,11.3-.65,16.9.64v-1.48C262.1,1825.33,289.94,1793.51,289.94,1754.88Z"/><path class="cls-2" d="M207.73,1825.13v19.69l-9.64,5.38c-.45.94-3.87,4.88-4.27,5.84-6.59,15.56-4.65,29.74-12.51,44.76l-4.76,152L219,2083.17c.57.5,2,1.83,1.72,2.48,15.73-8.59,31.17-16.44,40.29-30.41l-.53-2.31v-4.22l-7.2-150,.67.37c0-13.85.12-29.52-5-44.71l-20.9-11.66v-16.92C221.37,1824.48,214.44,1823.25,207.73,1825.13Z"/><path class="cls-1" d="M221.94,2085.31l29,97.57,0,.08.7,5.1,18.48,133.21a13,13,0,0,0,.55,3.75,12.45,12.45,0,0,0-.55,3.64c0,11.68,15.78,7.4,36,7.4s37.19,4.28,37.19-7.4-14.59-18-34.79-18c-1.45,0-4.59-.09-6,0l-12-127.82v-.07l-1.74-6.56-28.53-124.62"/><path class="cls-1" d="M198.13,1850.75,128.38,1923l-10.19,10.4a.6.6,0,0,0-.06.11l-1.14,4.6-21.58,94.59c-8.42,3.3-12.65,14.07-9.5,24.76,3.29,11.2,13.43,18.07,22.65,15.35s14-14,10.72-25.18a23.92,23.92,0,0,0-1-2.84,11.33,11.33,0,0,0-.21-5.6,10.18,10.18,0,0,0-.56-1.49l31-86a20.44,20.44,0,0,0,2.8-2.51v0l30.53-32.92"/><path class="cls-1" d="M353.76,2006.7l-18.37-93-2.9-12.64c-10.6,4.71-8.41,7.89-16.8,13.89l-6.47,6.47a4.71,4.71,0,0,0-1,1.3c-.94,2-3,3.3-2.36,5.49l20.64,75a23.83,23.83,0,0,0-8.93,11.46c-4.14,10.91-.22,22.51,8.76,25.93s19.62-2.67,23.76-13.58a25.09,25.09,0,0,0,1.57-6.9,11.27,11.27,0,0,0,2.56-4A11.84,11.84,0,0,0,353.76,2006.7Z"/><path class="cls-2" d="M332.46,1905.9l-1.17-5.07a1.13,1.13,0,0,0-.2-.13l-1.26-.71-82.19-46,3.2,43.83,58.83,32.51C317.8,1922.16,324.22,1914.07,332.46,1905.9Z"/><path class="cls-1" d="M214.72,1753.33c-28,13.6-12.63,24.5-1.09,27.27"/><circle class="cls-1" cx="214.93" cy="1804.57" r="14.39"/><line class="cls-4" x1="248" y1="1854" x2="332" y2="1901"/><line class="cls-4" x1="253" y1="1899" x2="306" y2="1929"/><line class="cls-4" x1="207" y1="1829" x2="207" y2="1845"/><line class="cls-4" x1="198" y1="1851" x2="207" y2="1845"/><line class="cls-4" x1="229" y1="1829" x2="229" y2="1843"/><line class="cls-1" x1="229" y1="1843" x2="248" y2="1854"/><line class="cls-4" x1="182" y1="1916" x2="176" y2="2059"/><line class="cls-4" x1="253" y1="1899" x2="260" y2="2052"/><rect class="cls-5" y="1600" width="400" height="800"/><ellipse class="cls-1" cx="547.72" cy="1754.35" rx="5.97" ry="16.16"/><ellipse class="cls-1" cx="692.93" cy="1753.31" rx="5.97" ry="16.16"/><path class="cls-1" d="M576.54,2051.88l-.16.82.16.13Z"/><path class="cls-1" d="M576.42,2050.74c-2.21,32.83-6.31,99.62-8.3,126s0-3-1,11.52c-.14,2,0,.05.07.32,5.06,42.05,9.22,85.14,14.14,125.93.49,4.13-1.43,4.58-1.77,4.64-11.73,2.11-38.59,5-36.82,20.31s29.66,6.23,39.53,5.45,34.81,1.47,35.78-12.5c.23-3.31-1.86-5.14-3.29-7.59.52-2.94,1-2.18.58-7.57-2.07-33.14-6.53-101.26-8.29-125.75s0,3.52-.33-4.92-.61,3.21-.12-3.5-1.94,12.72.53-4.22,12-81.53,14.59-99.06-.67,4.69,1-6.36"/><path class="cls-1" d="M689.94,1754.88c0-41.45-32.06-75.06-71.6-75.06s-71.61,33.61-71.61,75.06c0,38.27,27.34,69.85,62.66,74.47v1c5.56-1.86,11.3-.65,16.9.64v-1.48C662.1,1825.33,689.94,1793.51,689.94,1754.88Z"/><path class="cls-2" d="M606.73,1825.13v19.69l-9.64,5.38c-.09-.2-24.27,21.84-24.27,21.84s7.32,15.14,7.49,28.76l-4.76,152L618,2086.17l1.72,1.48c15.73-8.59,31.17-18.44,40.29-32.41l-.53-2.31v-4.22l-7.2-150,.67.37c11.42-14.45,2.74-29-5-43.71l-20.9-12.66v-16.92C620.37,1824.48,613.44,1823.25,606.73,1825.13Z"/><path class="cls-1" d="M666.22,1981.86,732,1909.65c1.72-1.88,0-6.65,0-6.65-8-5-25.49-16.92-27-15l-53.12,67.92a25.51,25.51,0,0,0-15.64-.43c-12.1,3.38-19.64,14.22-16.85,24.22s14.86,15.35,27,12a26.74,26.74,0,0,0,7-3.05,12.17,12.17,0,0,0,5.08-.31A12.75,12.75,0,0,0,666.22,1981.86Z"/><path class="cls-2" d="M726.66,1908.65c2.2-2.16,4.11-5.13,2.34-7.65l-85.36-48,3.2,43.83,58.83,32.51C712.56,1922.41,719.65,1915.55,726.66,1908.65Z"/><path class="cls-1" d="M614.72,1753.33c-28,13.6-12.63,24.5-1.09,27.27"/><circle class="cls-1" cx="614.93" cy="1804.57" r="14.39"/><path class="cls-1" d="M598,1850l-69.62,59-10.19,10.4a.6.6,0,0,0-.06.11l-1.14,4.6-21.58,94.59c-8.42,3.3-12.65,14.07-9.5,24.76,3.29,11.2,13.43,18.07,22.65,15.35s14-14,10.72-25.18a23.92,23.92,0,0,0-1-2.84,11.33,11.33,0,0,0-.21-5.6,10.18,10.18,0,0,0-.56-1.49l30.95-86a20.44,20.44,0,0,0,2.8-2.51v0L581,1904l-5,149"/><line class="cls-6" x1="598" y1="1850" x2="606.5" y2="1844.5"/><line class="cls-6" x1="606" y1="1828" x2="606" y2="1845"/><line class="cls-6" x1="628" y1="1829" x2="628" y2="1844"/><line class="cls-6" x1="707" y1="1888" x2="628" y2="1843"/><polyline class="cls-4" points="681.83 1916.82 653 1899 654.67 1950.84"/><path class="cls-1" d="M656.67,1990.6l3.55,62,28.53,124.62,1.74,6.56v.07l12,127.82c1.41-.09,4.55,0,6,0,20.2,0,34.79,6.29,34.79,18s-17,7.4-37.19,7.4-36,4.28-36-7.4a12.45,12.45,0,0,1,.55-3.64,13,13,0,0,1-.55-3.75l-18.48-133.21-.7-5.1,0-.08-31-96.57"/><rect class="cls-5" x="400" y="1600" width="400" height="800"/><ellipse class="cls-1" cx="947.72" cy="1754.35" rx="5.97" ry="16.16"/><ellipse class="cls-1" cx="1092.93" cy="1753.31" rx="5.97" ry="16.16"/><path class="cls-1" d="M976.54,2051.88l-.16.82.16.13Z"/><path class="cls-1" d="M976.42,2050.74c-2.21,32.83-6.31,99.62-8.3,126s0-3-1,11.52c-.14,2,0,.05.07.32,5.06,42.05,9.22,85.14,14.14,125.93.49,4.13-1.43,4.58-1.77,4.64-11.73,2.11-38.59,5-36.82,20.31s29.66,6.23,39.53,5.45,34.81,1.47,35.78-12.5c.23-3.31-1.86-5.14-3.29-7.59.52-2.94,1-2.18.58-7.57-2.07-33.14-6.53-101.26-8.29-125.75s0,3.52-.33-4.92-.61,3.21-.12-3.5-1.94,12.72.53-4.22,12-81.53,14.59-99.06-.67,4.69,1-6.36"/><path class="cls-1" d="M1089.94,1754.88c0-41.45-32.06-75.06-71.6-75.06s-71.61,33.61-71.61,75.06c0,38.27,27.34,69.85,62.66,74.47v1c5.56-1.86,11.3-.65,16.9.64v-1.48C1062.1,1825.33,1089.94,1793.51,1089.94,1754.88Z"/><path class="cls-1" d="M1021,2086l29.91,96.88,0,.08.7,5.1,18.48,133.21a13,13,0,0,0,.55,3.75,12.45,12.45,0,0,0-.55,3.64c0,11.68,15.78,7.4,36,7.4s37.19,4.28,37.19-7.4-14.59-18-34.79-18c-1.45,0-4.59-.09-6,0l-12-127.82v-.07l-1.74-6.56-28.53-124.62"/><path class="cls-1" d="M1000.68,1851.63a1.7,1.7,0,0,0-2.44-2l-84.52,47.23-12.28,6.85-.75.74h0a1.69,1.69,0,0,0,.67,2.34C911.91,1912.48,920,1921,932,1924c.65.16,10.42-3.68,11-4l42.55-23.09a1.75,1.75,0,0,0,.8-1Z"/><path class="cls-2" d="M1007.73,1825.13v19.69l-9.64,5.38c-.45.94-.87,1.88-1.27,2.84-6.59,15.56-7.65,32.74-15.51,47.76l-4.76,152,42.48,33.33,1.72,1.48c15.73-8.59,31.17-18.44,40.29-32.41l-.53-2.31v-4.22l-7.2-150,.67.37c-4.91-14.45-3.87-30-5-44.71l-20.9-11.66v-16.92C1021.37,1824.48,1014.44,1823.25,1007.73,1825.13Z"/><path class="cls-1" d="M1066.22,1981.86l65.79-72.21a4.93,4.93,0,0,0,0-6.65h0c-8-5-25.49-16.92-27-15l-53.12,67.92a25.51,25.51,0,0,0-15.64-.43c-12.1,3.38-19.64,14.22-16.85,24.22s14.86,15.35,27,12a26.74,26.74,0,0,0,7-3.05,12.17,12.17,0,0,0,5.08-.31A12.75,12.75,0,0,0,1066.22,1981.86Z"/><path class="cls-2" d="M1131,1905l-1-1a19.05,19.05,0,0,1,0-2l-91-53,12.84,47.87,58.83,32.51C1117.56,1922.41,1132.77,1907.52,1131,1905Z"/><path class="cls-1" d="M901,1904l-.07,2.66,55.45,79.61c-3.22,8.45,1.89,18.82,11.92,23.69,10.5,5.09,22.41,2.21,26.6-6.43s-.91-19.78-11.42-24.87a24.36,24.36,0,0,0-2.78-1.15,11.48,11.48,0,0,0-4.3-3.62,9.16,9.16,0,0,0-1.47-.58L943,1920"/><path class="cls-1" d="M1014.72,1753.33c-28,13.6-12.63,24.5-1.09,27.27"/><circle class="cls-1" cx="1014.93" cy="1804.57" r="14.39"/><path class="cls-7" d="M981.46,1752s-8.68,13.81-1.78,18.16,1.78-18.16,1.78-18.16"/><path class="cls-7" d="M974,1769.83s-6.49,8.59-2.2,11.83,2.2-11.83,2.2-11.83"/><path class="cls-7" d="M978,1781.83s-6.49,8.59-2.2,11.83,2.2-11.83,2.2-11.83"/><path class="cls-6" d="M1007,1829s0,16,0,16l-63,35"/><polyline class="cls-4" points="1029 1829 1029 1843 1130 1902"/><polyline class="cls-4" points="1083.68 1915.36 1053 1898 1055.82 1950.89"/><line class="cls-1" x1="981" y1="1900" x2="979.01" y2="1974.24"/><line class="cls-1" x1="977.81" y1="2012.48" x2="976" y2="2057"/><line class="cls-1" x1="1058" y1="1989" x2="1061" y2="2056"/><rect class="cls-5" x="800" y="1600" width="400" height="800"/><ellipse class="cls-1" cx="1324.1" cy="1777.28" rx="5.97" ry="16.16" transform="translate(-492.54 507.71) rotate(-18.37)"/><ellipse class="cls-1" cx="1461.58" cy="1730.54" rx="5.97" ry="16.16" transform="translate(-470.81 548.65) rotate(-18.37)"/><path class="cls-1" d="M1375.54,2051.88l-.16.82.16.13Z"/><path class="cls-1" d="M1375,2051c-2.21,32.83-5.89,99.36-7.88,125.7s0-3-1,11.52c-.14,2,0,.05.07.32,5.06,42.05,9.22,85.14,14.14,125.93.49,4.13-1.43,4.58-1.77,4.64-11.73,2.11-38.59,5-36.82,20.31s29.66,6.23,39.53,5.45,34.81,1.47,35.78-12.5c.23-3.31-1.86-5.14-3.29-7.59.52-2.94,1-2.18.58-7.57-2.07-33.14-6.53-101.26-8.29-125.75s0,3.52-.33-4.92-.61,3.21-.12-3.5-1.94,12.72.53-4.22,12-81.53,14.59-99.06-.67,4.69,1-6.36"/><path class="cls-1" d="M1459.24,1733c-13.06-39.34-54.08-61.14-91.61-48.68s-57.37,54.46-44.31,93.8c12.06,36.32,48,57.69,82.93,50.94l.3.92c4.7-3.52,10.53-4.18,16.25-4.72l-.47-1.41C1455,1808.6,1471.41,1769.63,1459.24,1733Z"/><path class="cls-2" d="M1406.73,1825.13v19.69l-9.64,5.38c-.45.94-.87,1.88-1.27,2.84-6.59,15.56-7.65,32.74-15.51,47.76l-4.76,152,42.48,33.33,1.72,1.48c15.73-8.59,31.17-18.44,40.29-32.41l-.53-2.31v-4.22l-7.2-150,.67.37c-4.91-14.45-3.87-30-5-44.71l-20.9-11.66L1427,1820C1420.24,1818.7,1413.44,1823.25,1406.73,1825.13Z"/><path class="cls-1" d="M1420,2088l29.91,94.88,0,.08.7,5.1,18.48,133.21a13,13,0,0,0,.55,3.75,12.45,12.45,0,0,0-.55,3.64c0,11.68,15.78,7.4,36,7.4s37.19,4.28,37.19-7.4-14.59-18-34.79-18c-1.45,0-4.59-.09-6,0l-12-127.82v-.07l-1.74-6.56-28.53-124.62L1457,1987"/><path class="cls-1" d="M1300,1904l-.07,2.66,55.45,79.61c-3.22,8.45,1.89,18.82,11.92,23.69,10.5,5.09,22.41,2.21,26.6-6.43s-.91-19.78-11.42-24.87a24.36,24.36,0,0,0-2.78-1.15,11.48,11.48,0,0,0-4.3-3.62,9.16,9.16,0,0,0-1.47-.58L1341,1918"/><path class="cls-2" d="M1399.68,1851.63a1.7,1.7,0,0,0-2.44-2l-84.52,47.23-12.28,6.85-.75.74h0a1.69,1.69,0,0,0,.67,2.34c10.55,5.69,20.64,6.21,32.64,9.21.65.16,8.42,4.32,9,4l42.55-23.09a1.75,1.75,0,0,0,.8-1Z"/><path class="cls-1" d="M1465.22,1980.86l65.79-72.21c1.72-1.88,0-6.65,0-6.65-8-5-25.49-16.92-27-15l-53.12,67.92a25.51,25.51,0,0,0-15.64-.43c-12.1,3.38-19.64,14.22-16.85,24.22s14.86,15.35,27,12a26.74,26.74,0,0,0,7-3.05,12.17,12.17,0,0,0,5.08-.31A12.75,12.75,0,0,0,1465.22,1980.86Z"/><path class="cls-2" d="M1530,1905c3.23-2.62-84.87-52.18-85.36-52l5.2,44.83,58.83,32.51C1515.56,1923.41,1522.36,1911.2,1530,1905Z"/><path class="cls-1" d="M1387.36,1755.2c-22.27,21.72-4.27,27.23,7.56,26.22"/><circle class="cls-1" cx="1403.7" cy="1803.76" r="14.39"/><polyline class="cls-6" points="1406.25 1829.03 1406.5 1844.5 1299.5 1903.5"/><path class="cls-7" d="M1355.38,1764.42s-3.9,15.85,4,17.79-4-17.79-4-17.79"/><path class="cls-7" d="M1353.93,1783.68s-3.45,10.2,1.65,11.92-1.65-11.92-1.65-11.92"/><path class="cls-7" d="M1361.51,1793.81s-3.45,10.19,1.65,11.92-1.65-11.92-1.65-11.92"/><path class="cls-7" d="M1354.38,1806.42s-3.9,15.85,4,17.79-4-17.79-4-17.79"/><path class="cls-7" d="M1352.93,1825.68s-3.45,10.2,1.65,11.92-1.65-11.92-1.65-11.92"/><path class="cls-7" d="M1360.51,1835.81s-3.45,10.19,1.65,11.92-1.65-11.92-1.65-11.92"/><path class="cls-7" d="M1353.38,1845.42s-3.9,15.85,4,17.79-4-17.79-4-17.79"/><path class="cls-7" d="M1437.17,1792.29s8.59,13.88,1.65,18.17-1.65-18.17-1.65-18.17"/><path class="cls-7" d="M1351.93,1864.68s-3.45,10.2,1.65,11.92-1.65-11.92-1.65-11.92"/><path class="cls-7" d="M1359.51,1874.81s-3.45,10.19,1.65,11.92-1.65-11.92-1.65-11.92"/><path class="cls-7" d="M1431.17,1751.13s8.6,13.88,1.66,18.17-1.66-18.17-1.66-18.17"/><path class="cls-7" d="M1438.49,1769s6.43,8.63,2.11,11.85-2.11-11.85-2.11-11.85"/><path class="cls-7" d="M1434.41,1781s6.42,8.64,2.11,11.85-2.11-11.85-2.11-11.85"/><path class="cls-7" d="M1365,1816.29s-6.42,15,1.08,18.22-1.08-18.22-1.08-18.22"/><path class="cls-7" d="M1350.1,1797.7s-5.22,9.41-.51,12,.51-12,.51-12"/><path class="cls-7" d="M1349.62,1837.82s-5.13,9.46-.4,12,.4-12,.4-12"/><path class="cls-7" d="M1448.5,1797.6s9.56,13.23,2.94,18-2.94-18-2.94-18"/><path class="cls-7" d="M1457.07,1814.91s7,8.16,2.94,11.67-2.94-11.67-2.94-11.67"/><path class="cls-7" d="M1453.84,1827.14s7,8.16,2.94,11.67-2.94-11.67-2.94-11.67"/><polyline class="cls-6" points="1341 1920 1381.4 1897.62 1377.97 1975.6"/><polyline class="cls-6" points="1427.73 1820.01 1428 1843 1506 1887"/><polyline class="cls-6" points="1481.72 1916.49 1452.98 1899.07 1454.88 1949.54"/><line class="cls-6" x1="1376.68" y1="2013.47" x2="1372.38" y2="2094.06"/><rect class="cls-5" x="1200" y="1600" width="400" height="800"/></g></g></svg>
